<svg xmlns:xlink="http://www.w3.org/1999/xlink" style="display: none;"><symbol viewBox="0 0 16 2.7" id="dots"><circle cx="1.3" cy="1.3" r="1.3"/><circle cx="8" cy="1.3" r="1.3"/><circle cx="14.7" cy="1.3" r="1.3"/></symbol><symbol viewBox="0 0 145 18" id="logo"><path d="M11.2 0L2.7 8.6h-.2V.3L2.2 0h-2L0 .3v17.2l.2.3h2l.2-.3v-5.1l.2-.5L5 9.6h.2l6.2 8.1H13v-2L7 7.9v-.3L12.5 2V0m7.7 4.8c3.7 0 6 2.5 6 6.6S24 18 20.2 18c-3.7 0-6-2.5-6-6.6 0-4 2.3-6.6 6-6.6m0 10.9c2.2 0 3.5-1.5 3.5-4.3s-1.2-4.3-3.5-4.3-3.5 1.5-3.5 4.3 1.3 4.3 3.5 4.3m15.4-8.3h-1.2c-2 0-3.2.8-3.2 3.8v6.3l-.2.3h-2l-.2-.3V5.3L29 5h1.7l.2.3.2 1h.2C32 5.5 32.8 5 34.5 5h1l.2.3v1.8l-.1.3zm12.5 10.3h-1.7l-.2-.3-.2-1h-.2s-1 1.5-3.2 1.5c-3.5 0-5.5-2.8-5.5-6.6s2-6.6 5.5-6.6c2.2 0 3.2 1.5 3.2 1.5h.2V.3l.1-.3h2l.2.3v17.2l-.2.2zM42.7 7.1c-2 0-3.2 1.5-3.2 4.3s1.2 4.3 3.2 4.3 3.2-1.3 3.2-4.3-1.2-4.3-3.2-4.3zM61 17.7h-1.7l-.3-.2-.2-1h-.2s-1 1.5-3.5 1.5c-2.7 0-4.2-1.5-4.2-4.1 0-2.8 2.2-4.1 5.5-4.1 1.2 0 2.2.3 2.2.3l.2-.3v-.4c0-1.8-.7-2.3-2.5-2.3-1.7 0-2.5.5-2.5 1.5l-.2.3h-2l-.2-.3c0-1.8 1.2-3.8 5-3.8 3.7 0 5 1.8 5 5.6v7.1l-.4.2zm-2.2-5.3l-.2-.3s-.7-.3-2-.3c-2.2 0-3.2.8-3.2 2 0 1.3.7 1.8 2.2 1.8 2 0 3.2-1 3.2-2.5v-.7zM79.4 0l-.2.3-5.7 14.2h-.2L67.4.3l-.2-.3h-2.7l-.2.3v17.2l.2.3h2l.2-.3V5.3h.3l5 12.2.2.3h2.2l.2-.3 5-12.2h.2v12.2l.2.3h2l.3-.3V.3l-.1-.3m2.6 11.4c0-3.5 1.7-6.6 5.7-6.6s5.7 3 5.7 6.6v.8l-.3.3h-8.2l-.2.3c0 .5.2 3 3.2 3 1 0 2-.3 2.5-1.5l.2-.3h2l.2.3c-.2 2-2 3.8-5 3.8-3.8-.1-5.8-2.9-5.8-6.7zm8.8-1.3c0-.8-.2-3-3-3-2.7 0-3 2.3-3 3l.2.3h5.5l.3-.3zm15.5 7.6h-2l-.2-.3V10c0-1.3-.2-3-2.5-3s-3.2 1.3-3.2 4.3v6.1l-.2.3h-2l-.2-.3V5.3l.3-.3h1.7l.2.3.2 1h.2s1-1.5 3.2-1.5c3.5 0 4.7 2.3 4.7 5.3v7.4l-.2.2zm9.5 0h-2c-1.7 0-3.5-1-3.5-3.3V7.6l-.2-.3h-1.7L111 7V5.3l.2-.3h1.7l.2-.3V2.5l.2-.3h2l.2.3v2.3l.2.3h2.7l.2.3v1.8l-.2.3h-2.7l-.2.3v6.8c0 .8.5 1 1 1h2l.2.3v1.8h-.1zm13.3 0h-2l-.2-.3V10c0-1.5-.5-3-2.5-3s-3.2 1-3.2 4.1v6.3l-.3.3h-2l-.2-.3V.3l.2-.3h2l.2.3v6.1h.2s1-1.5 3.2-1.5c3.7 0 4.7 2.5 4.7 5.3v7.4l-.1.1zm12.9 0H143l-.3-.3-.2-1h-.2s-1 1.5-3.5 1.5c-2.7 0-4.2-1.5-4.2-4.1 0-2.8 2.2-4.1 5.5-4.1 1.2 0 2.2.3 2.2.3l.2-.3v-.3c0-1.8-.7-2.3-2.5-2.3-1.7 0-2.5.5-2.5 1.5l-.3.3h-2l-.2-.3c0-1.8 1.2-3.8 5-3.8 3.7 0 5 1.8 5 5.6v7.1l-.2.2zm-2.3-5.3l-.2-.3s-.7-.3-2-.3c-2.2 0-3.2.8-3.2 2 0 1.3.7 1.8 2.2 1.8 2 0 3.2-1 3.2-2.5v-.7z"/></symbol><symbol viewBox="0 0 13 13" id="logout"><path d="M6.4 0H0v13h6.9V9.7h-1v2.1H1V1.1h4.9v2.1h1V0h-.5zm3.1 10.5l3.1-3.6.4-.4-.3-.4-3.2-3.6-.7.8 2.3 2.6H2.4V7h8.7L8.8 9.7l.7.8z"/></symbol><symbol viewBox="0 0 14 14" id="pen"><path d="M14 1.5c-.1-.3-.2-.6-.5-.9-.3-.3-.6-.5-.9-.5-.3-.1-.6 0-.8.1-.2.1-.4.2-.5.3-.1 0-.1.1-.2.1l.4.4-.4-.4-9.6 9.6-.1.1v.1L.5 13 0 14l1.1-.4 2.6-.9h.1l.1-.1L13.5 3l-.5-.3.4.4s.1-.1.1-.2c.1-.1.2-.3.3-.5.2-.3.2-.6.2-.9zM3.2 11.7l-1.4.5.5-1.4 8.2-8.2.9 1-8.2 8.1zM12.8 2c0 .1-.1.2-.1.2s0 .1-.1.1l-.5.5-.9-1 .5-.5.1-.1c.1 0 .1-.1.2-.1h.3c.1 0 .2.1.3.2.1.1.2.3.2.3.1.2.1.3 0 .4z"/></symbol></svg>