<svg xmlns="http://www.w3.org/2000/svg"
     class="account-creation-progress"
     viewBox="0 0 331.9 24">
  <circle class="step step_1" style="fill: currentColor;" cx="4" cy="12" r="4"/>
  <g class="step step_2">
    <path style="stroke: currentColor;" d="M18.5 11.5h4v1h-4v-1zm68 1h-4v-1h4v1zm-8 0h-4v-1h4v1zm-8 0h-4v-1h4v1zm-8 0h-4v-1h4v1zm-8 0h-4v-1h4v1zm-8 0h-4v-1h4v1zm-8 0h-4v-1h4v1zm-8 0h-4v-1h4v1z"/>
    <circle style="fill: currentColor;" cx="107.3" cy="12" r="4"/>
  </g>
  <g class="step step_3">
    <path style="stroke: currentColor;" d="M189.7 12.5h-4v-1h4v1zm-8 0h-4v-1h4v1zm-8 0h-4v-1h4v1zm-8 0h-3.9v-1h3.9v1zm-7.9 0h-4v-1h4v1zm-8 0h-4v-1h4v1zm-8 0h-4v-1h4v1zm-8 0h-4v-1h4v1zm-8 0h-4v-1h4v1z"/>
    <circle style="fill: currentColor;" cx="209.8" cy="12" r="4"/>
  </g>
  <g class="step step_4">
    <path style="stroke: currentColor;" d="M292.3 12.5h-4v-1h4v1zm-8 0h-4v-1h4v1zm-8 0h-4v-1h4v1zm-8 0h-4v-1h4v1zm-8 0h-4v-1h4v1zm-8 0h-4v-1h4v1zm-8 0h-4v-1h4v1zm-8 0h-4v-1h4v1zm-8 0h-4v-1h4v1z"/>
    <path style="fill: currentColor;"
          d="M331.9 12c0-6.6-5.4-12-12-12s-12 5.4-12 12c0 3.4 1.4 6.6 3.9 8.9l.4.3s.1 0 .1.1c.2.2.4.3.6.5l.2.2c.2.2.5.3.7.5l.2.1c.3.2.5.3.8.4h.1c.9.4 1.9.7 2.9.9h.1c.3.1.6.1 1 .1h2.2c.3 0 .6-.1 1-.1h.1c1-.2 1.9-.5 2.9-.9h.1c.3-.1.5-.3.8-.4l.2-.1c.2-.1.5-.3.7-.4.1-.1.2-.1.2-.2.2-.1.4-.3.6-.4l.1-.1.4-.3c2.3-2.5 3.7-5.7 3.7-9.1zm-23.1 0c0-6.1 5-11.1 11.1-11.1S331 5.9 331 12c0 3.2-1.4 6.2-3.7 8.3-.1-.1-.3-.2-.4-.2l-3.7-1.8c-.3-.2-.5-.5-.5-.9v-1.3c.1-.1.2-.2.3-.4.5-.7.9-1.4 1.1-2.2.6-.3.9-.8.9-1.4v-1.5c0-.4-.1-.7-.4-1v-2c.1-.9-.2-1.8-.8-2.6-1-1-2.4-1.5-3.9-1.4-1.4-.1-2.8.4-3.9 1.4-.6.7-.9 1.6-.8 2.6v2c-.2.3-.4.7-.4 1v1.5c0 .5.2.9.6 1.2.3 1 .7 2 1.4 2.8v1.3c0 .4-.2.7-.5.9l-3.5 1.9c-.1.1-.2.1-.3.2-2.4-2.2-3.7-5.2-3.7-8.4zm17.7 9c-.2.1-.3.2-.5.3-.1 0-.1.1-.2.1-.2.1-.4.2-.6.4l-.1.1c-.5.3-1 .5-1.5.6h-.1c-.3.1-.6.2-.8.2-.3.1-.6.1-.9.2-.3 0-.5.1-.8.1h-1.8c-.3 0-.6-.1-.8-.1-.6-.1-1.1-.2-1.7-.4h-.1c-.3-.1-.5-.2-.8-.3s-.5-.2-.7-.4h-.1c-.2-.1-.4-.2-.7-.4l-.2-.1c-.2-.1-.4-.3-.6-.4h-.1l3.5-1.9c.6-.3 1-.9 1-1.6v-1.6l-.1-.1c-.6-.8-1.1-1.7-1.3-2.7v-.2l-.1-.1c-.2-.1-.3-.4-.3-.6v-1.5c0-.2.1-.4.2-.5l.1-.1V7.5c-.1-.7.2-1.4.6-1.9.9-.8 2-1.2 3.2-1.1 1.2-.1 2.3.3 3.2 1.1.4.5.7 1.2.6 1.9V10l.1.1c.2.1.2.3.2.5v1.5c0 .3-.2.6-.5.7l-.2.1-.1.2c-.2.8-.6 1.5-1.1 2.2-.1.2-.2.3-.3.4l-.1.1v1.6c0 .7.4 1.3 1 1.6l3.7 1.8h.1c-.2.1-.3.2-.3.2z"/>
  </g>
</svg>
