<?xml version="1.0" standalone="no"?>
<!DOCTYPE svg PUBLIC "-//W3C//DTD SVG 1.1//EN" "http://www.w3.org/Graphics/SVG/1.1/DTD/svg11.dtd" >
<svg xmlns="http://www.w3.org/2000/svg">
<metadata></metadata>
<defs>
<font id="weissenhof_grotesklight" horiz-adv-x="1306" >
<font-face units-per-em="2048" ascent="1536" descent="-512" />
<missing-glyph horiz-adv-x="471" />
<glyph unicode="&#xfb01;" horiz-adv-x="1163" d="M850 1354q0 35 21.5 57.5t56.5 22.5t57.5 -22.5t22.5 -57.5t-22.5 -57.5t-57.5 -22.5t-56.5 22.5t-21.5 57.5zM270 0h-53q-22 0 -22 23v907h-172q-23 0 -23 22v47q0 11 6.5 18t16.5 7h172v18q0 71 4 119t15.5 96.5t34.5 78t60 53.5t92 34.5t131 10.5h15q10 0 17 -7t7 -18 v-49q0 -23 -24 -23h-15q-54 0 -89 -3.5t-63.5 -16.5t-43.5 -31.5t-25 -54t-13 -78.5t-3 -111v-18h659q10 0 17.5 -7t7.5 -18v-976q0 -10 -7 -16.5t-18 -6.5h-53q-22 0 -22 23v907h-584v-907q0 -10 -7 -16.5t-18 -6.5z" />
<glyph unicode="&#xfb02;" horiz-adv-x="1153" d="M270 0h-53q-22 0 -22 23v907h-172q-23 0 -23 22v47q0 11 6.5 18t16.5 7h172v18q0 71 4 119t15.5 96.5t34.5 78t60 53.5t92 34.5t131 10.5h422q10 0 17.5 -7t7.5 -18v-1386q0 -10 -7 -16.5t-18 -6.5h-53q-22 0 -22 23v1314h-347q-54 0 -89 -3.5t-63.5 -16.5t-43.5 -31.5 t-25 -54t-13 -78.5t-3 -111v-18h252q10 0 17 -7t7 -18v-47q0 -22 -24 -22h-252v-907q0 -10 -7 -16.5t-18 -6.5z" />
<glyph horiz-adv-x="0" />
<glyph horiz-adv-x="682" />
<glyph unicode=" "  horiz-adv-x="471" />
<glyph unicode="&#x09;" horiz-adv-x="471" />
<glyph unicode="&#xa0;" horiz-adv-x="471" />
<glyph unicode="!" horiz-adv-x="454" d="M250 338h-53q-23 0 -23 22v1049q0 11 6.5 18t16.5 7h53q10 0 17 -7t7 -18v-1049q0 -22 -24 -22zM131 84q0 43 26.5 69.5t69.5 26.5t70 -26.5t27 -69.5q0 -42 -27 -68t-70 -26t-69.5 25.5t-26.5 68.5z" />
<glyph unicode="&#x22;" horiz-adv-x="751" d="M543 983h-21q-19 0 -22 23l-19 202q-2 25 -2 52v149q0 11 6.5 18t16.5 7h61q11 0 18 -7t7 -18v-149q0 -23 -2 -52l-19 -202q-3 -23 -24 -23zM227 983h-20q-20 0 -23 23l-18 202q-2 25 -2 52v149q0 25 22 25h62q10 0 17 -7t7 -18v-149q0 -23 -2 -52l-18 -202 q-3 -23 -25 -23z" />
<glyph unicode="#" horiz-adv-x="1568" d="M637 924l-84 -455h385l86 455h-387zM930 0h-60q-6 0 -10 5t-4 11q0 7 4 27l60 326h-385l-66 -349q-4 -20 -27 -20h-59q-14 0 -14 14q0 17 4 31l59 324h-235q-23 0 -23 22v53q0 11 6.5 18t16.5 7h254l86 455h-228q-22 0 -22 22v53q0 25 22 25h246l66 348q4 21 26 21h60 q14 0 14 -15q0 -8 -2 -20l-64 -334h387l66 348q4 21 27 21h59q14 0 14 -15q0 -8 -2 -20l-63 -334h227q10 0 17.5 -7t7.5 -18v-53q0 -22 -25 -22h-246l-84 -455h217q11 0 18 -7.5t7 -17.5v-53q0 -22 -25 -22h-235l-66 -349q-4 -20 -26 -20z" />
<glyph unicode="$" horiz-adv-x="1222" d="M649 -205h-47q-22 0 -22 23v164q-102 6 -184.5 38.5t-134 79t-86 104.5t-48.5 111t-14 103q0 24 22 24h58q11 0 17.5 -7t6.5 -17q1 -38 11 -79t39 -90t72.5 -86.5t119 -63t170.5 -25.5q80 0 146.5 16.5t120.5 50t84 92t30 136.5q0 65 -29 112.5t-78 75.5t-112.5 49 t-133.5 38t-140 36t-133.5 48.5t-112.5 71t-78 109t-29 156.5q0 94 32 164.5t90.5 113.5t131.5 65t162 26v159q0 25 22 25h47q11 0 18 -7t7 -18v-161q96 -6 169.5 -34t115 -66.5t67.5 -88t34.5 -91t8.5 -83.5q0 -22 -25 -22h-53q-22 0 -22 22q-2 59 -17.5 104t-52.5 84.5 t-107 60.5t-171 21q-82 0 -143.5 -12.5t-111.5 -42.5t-76 -85t-26 -134q0 -73 29 -127.5t78 -86.5t112.5 -55.5t133.5 -40.5t140 -34.5t133.5 -44t112.5 -64t78 -99.5t29 -144q0 -78 -24.5 -142t-65.5 -107t-98 -73.5t-118.5 -45.5t-129.5 -19v-164q0 -10 -7 -16.5t-18 -6.5 z" />
<glyph unicode="%" horiz-adv-x="1787" d="M82 1010v100q0 157 82 246.5t237 89.5q157 0 238.5 -89.5t81.5 -246.5v-100q0 -157 -82.5 -245.5t-239.5 -88.5q-154 0 -235.5 88.5t-81.5 245.5zM541 0h-68q-14 0 -14 14q0 5 8 21l752 1378l3 7q4 6 5.5 7.5t6.5 4t11 2.5h68q14 0 14 -15q0 -4 -8 -20l-752 -1379 q-5 -9 -6 -10.5t-7 -5.5t-13 -4zM182 1110v-102q0 -242 217 -242q112 0 167 62.5t55 179.5v102q0 244 -220 244q-110 0 -164.5 -63t-54.5 -181zM1067 322v100q0 157 82 246.5t237 89.5q157 0 238.5 -89.5t81.5 -246.5v-100q0 -157 -82.5 -245.5t-239.5 -88.5 q-154 0 -235.5 88.5t-81.5 245.5zM1167 422v-103q0 -241 217 -241q112 0 167 62.5t55 178.5v103q0 244 -220 244q-110 0 -164.5 -63t-54.5 -181z" />
<glyph unicode="&#x26;" d="M348 1130q0 -80 34 -143.5t132 -171.5q48 25 69.5 36.5t62.5 35.5t61 40t48 42t41 49.5t23 54.5t10 64q0 113 -64 165t-159 52q-258 0 -258 -224zM584 80q210 0 325 145l-420 475q-58 -33 -99.5 -64.5t-79.5 -72.5t-57.5 -92.5t-19.5 -112.5q0 -52 17 -98t55 -88 t109.5 -67t169.5 -25zM1102 10l-125 142q-144 -172 -393 -172q-117 0 -207 34t-141.5 90t-77 120.5t-25.5 133.5q0 62 16.5 116.5t42.5 95t66 78.5t79.5 64.5t90.5 55.5q-3 3 -25.5 29t-30 35.5t-28.5 37t-30.5 44t-24.5 45.5t-22 53t-13 54.5t-6 61.5q0 71 22.5 128.5 t58.5 93.5t84 60t95.5 34t97.5 10q80 0 143.5 -27.5t102 -73t58.5 -101.5t20 -117q0 -42 -11.5 -80.5t-27 -68t-47 -60.5t-55 -51t-68.5 -47.5t-70 -41.5t-76 -41l388 -434q79 157 79 396q0 24 23 24h53q11 0 18 -7t7 -17q-5 -286 -111 -474l180 -198q13 -13 13 -21 q0 -14 -15 -14h-86q-12 0 -22 10z" />
<glyph unicode="'" horiz-adv-x="436" d="M227 983h-20q-20 0 -23 23l-18 202q-2 25 -2 52v149q0 25 22 25h62q10 0 17 -7t7 -18v-149q0 -23 -2 -52l-18 -202q-3 -23 -25 -23z" />
<glyph unicode="(" horiz-adv-x="593" d="M154 1012q0 485 387 604q16 4 18 4q14 0 14 -14v-64q0 -9 -3.5 -12.5t-14.5 -7.5q-4 -1 -6 -2q-160 -63 -227.5 -181t-67.5 -329v-635q0 -407 295 -506q24 -8 24 -25v-59q0 -14 -14 -14q-8 0 -20 4q-385 112 -385 600v637z" />
<glyph unicode=")" horiz-adv-x="593" d="M53 1616q387 -119 387 -604v-637q0 -488 -385 -600q-12 -4 -20 -4q-15 0 -15 14v59q0 17 25 25q295 99 295 506v635q0 211 -67.5 329t-227.5 181q-2 1 -6.5 2.5l-6 2t-4 2t-3.5 2.5t-2.5 2t-1.5 2.5t-0.5 3.5t-0.5 5v64q0 14 15 14q2 0 18 -4z" />
<glyph unicode="*" horiz-adv-x="919" d="M528 1018l170 -240q14 -21 -6 -35l-41 -28q-18 -12 -33 6l-163 233l-164 -233q-15 -18 -33 -6l-41 28q-20 14 -6 35l170 244l-262 100q-20 8 -13 25l19 51q7 22 31 14l252 -92v289q0 11 7 18t17 7h49q11 0 18 -7t7 -18v-293l262 96q23 8 31 -14l16 -47q7 -22 -16 -31z " />
<glyph unicode="+" horiz-adv-x="1290" d="M672 205h-54q-22 0 -22 22v445h-430q-23 0 -23 22v47q0 11 6.5 18t16.5 7h430v438q0 25 22 25h54q10 0 17 -7t7 -18v-438h426q10 0 17.5 -7t7.5 -18v-47q0 -22 -25 -22h-426v-445q0 -22 -24 -22z" />
<glyph unicode="," horiz-adv-x="397" d="M102 86q0 41 27 67.5t70 26.5q47 0 73.5 -33t26.5 -96q0 -72 -17.5 -132.5t-42 -95.5t-51.5 -60t-45.5 -34.5t-25.5 -9.5q-15 0 -15 19v51q0 5 0.5 8.5t1 6t2.5 5t3 3.5t5 4t5 4q69 59 82 170q-42 0 -70.5 23.5t-28.5 72.5z" />
<glyph unicode="-" horiz-adv-x="866" d="M723 637v-47q0 -10 -7 -16.5t-18 -6.5h-532q-23 0 -23 23v47q0 11 6.5 18t16.5 7h532q10 0 17.5 -7t7.5 -18z" />
<glyph unicode="." horiz-adv-x="397" d="M102 84q0 43 27 69.5t70 26.5t69.5 -26.5t26.5 -69.5t-26.5 -68.5t-69.5 -25.5t-70 26t-27 68z" />
<glyph unicode="/" horiz-adv-x="823" d="M131 0h-65q-15 0 -15 14q0 6 6 21l609 1378q8 21 26 21h66q14 0 14 -15q0 -5 -6 -20l-608 -1379q-8 -20 -27 -20z" />
<glyph unicode="0" horiz-adv-x="1208" d="M154 522v369q0 255 116 399t334 144t334.5 -144.5t116.5 -398.5v-369q0 -254 -117.5 -398t-335.5 -144t-333 143.5t-115 398.5zM254 891v-369q0 -448 348 -448q176 0 264 116t88 332v369q0 216 -87.5 332t-262.5 116t-262.5 -116t-87.5 -332z" />
<glyph unicode="1" horiz-adv-x="817" d="M776 70v-47q0 -23 -24 -23h-648q-22 0 -22 23v47q0 24 22 24h275v1026h-275q-22 0 -22 23v39q0 24 22 24q66 0 116 13t78 31t47 45t25 46t11 43q5 29 25 29h49q11 0 17.5 -6.5t6.5 -17.5v-1295h273q10 0 17 -7t7 -17z" />
<glyph unicode="2" horiz-adv-x="1056" d="M766 690l-545 -590h688q11 0 18 -7t7 -17v-53q0 -10 -7 -16.5t-18 -6.5h-774q-22 0 -22 23v57q0 44 32 76l533 581q131 142 131 310q0 141 -78 216.5t-211 75.5q-128 0 -210.5 -68.5t-82.5 -180.5q0 -23 -24 -23h-53q-23 0 -23 23q0 18 4 42.5t15.5 58t29 66t48.5 65 t70.5 57t98 40t127.5 15.5q122 0 213.5 -56t135.5 -142.5t44 -188.5q0 -64 -16.5 -125.5t-43 -107.5t-47 -74.5t-40.5 -49.5z" />
<glyph unicode="3" horiz-adv-x="1124" d="M547 -20q-96 0 -175 29t-125.5 71t-78 91.5t-43.5 86.5t-12 61q0 25 22 25h51q23 0 27 -22q21 -117 113 -182.5t221 -65.5q155 0 244.5 83.5t89.5 221.5q0 139 -78 223t-225 84h-99q-22 0 -22 23v53q0 24 22 24h99q115 0 198.5 79t83.5 198q0 130 -89 203t-224 73 q-128 0 -217.5 -67.5t-96.5 -181.5q0 -9 -7 -16t-17 -7h-53q-23 0 -23 23q0 27 10 64.5t39.5 88t73 92t120 70.5t171.5 29q185 0 299.5 -108.5t114.5 -262.5q0 -216 -203 -320q107 -55 165 -148t58 -216q0 -80 -29.5 -151.5t-83.5 -127t-137 -88t-184 -32.5z" />
<glyph unicode="4" horiz-adv-x="1089" d="M1018 332v-43q0 -10 -7 -16.5t-18 -6.5h-166v-243q0 -23 -24 -23h-49q-23 0 -23 23v243h-657q-23 0 -23 23v41q0 31 19 61l626 993q18 29 33 29h74q11 0 17.5 -6.5t6.5 -17.5v-1033h166q11 0 18 -7t7 -17zM731 356v918l-575 -918h575z" />
<glyph unicode="5" horiz-adv-x="1136" d="M1014 459q0 -215 -113 -347t-323 -132q-98 0 -176 29.5t-122 69t-75.5 93t-42.5 87.5t-17 67q-1 8 3.5 13t11.5 5h59q20 0 27 -22q76 -248 332 -248q158 0 246.5 101t88.5 284v33q0 83 -27.5 150.5t-72.5 109t-100.5 64t-114.5 22.5q-104 0 -186.5 -41.5t-135.5 -114.5 q-7 -10 -15.5 -24t-12.5 -20t-12 -10.5t-19 -4.5h-35q-25 0 -22 22l61 744q3 24 23 24h682q10 0 17 -6.5t7 -17.5v-54q0 -22 -24 -22h-617l-45 -508q137 127 334 127q56 0 112.5 -15t111.5 -49.5t97.5 -84t68.5 -125t26 -166.5v-33z" />
<glyph unicode="6" horiz-adv-x="1210" d="M616 -20q-212 0 -332 129.5t-120 345.5v434q0 253 118.5 399t333.5 146q83 0 152.5 -22t115.5 -57.5t78.5 -81t47 -92t14.5 -91.5q0 -10 -7 -16.5t-18 -6.5h-53q-22 0 -22 23q0 115 -89.5 182t-218.5 67q-170 0 -261 -119t-91 -333v-172q45 79 141.5 132.5t210.5 53.5 q138 0 243 -61.5t156.5 -159t51.5 -213.5v-12q0 -216 -119.5 -345.5t-331.5 -129.5zM616 807q-148 0 -250 -97t-102 -243v-12q0 -126 48 -213.5t126 -127.5t178 -40q155 0 253 97t98 284v12q0 146 -101.5 243t-249.5 97z" />
<glyph unicode="7" horiz-adv-x="956" d="M215 0q-14 0 -14 14q0 5 6 17l565 1288h-698q-23 0 -23 22v48q0 24 23 24h786q11 0 18 -7t7 -17v-21q0 -14 -17 -57l-551 -1280q0 -1 -2.5 -6t-4.5 -8.5t-5.5 -8t-9 -6.5t-12.5 -2h-68z" />
<glyph unicode="8" horiz-adv-x="1214" d="M176 1059v10q0 51 12.5 99.5t44 97.5t79 85.5t124 59.5t172.5 23t172.5 -23t123.5 -59.5t78.5 -85.5t43.5 -97.5t12 -99.5v-10q0 -236 -196 -318q229 -98 229 -344v-16q0 -97 -36.5 -174.5t-100.5 -126.5t-147 -74.5t-179 -25.5q-77 0 -146 16t-127.5 49t-101 80 t-66.5 112.5t-24 143.5v16q0 243 232 344q-90 36 -144.5 120.5t-54.5 197.5zM276 1069v-10q0 -133 91.5 -202t240.5 -69q152 0 241 68.5t89 202.5v10q0 137 -85 204.5t-245 67.5q-150 0 -241 -69t-91 -203zM244 408v-35q0 -141 106.5 -221t257.5 -80q154 0 258.5 79.5 t104.5 221.5v35q0 93 -52.5 159.5t-132.5 96.5t-178 32q-152 0 -258 -80.5t-106 -207.5z" />
<glyph unicode="9" horiz-adv-x="1210" d="M594 606q148 0 250 97t102 243v12q0 126 -48 213.5t-126 127.5t-178 40q-155 0 -252.5 -97t-97.5 -284v-12q0 -146 101 -243t249 -97zM946 526v172q-45 -79 -141.5 -132.5t-210.5 -53.5q-138 0 -243 61.5t-156.5 159t-51.5 213.5v12q0 216 119.5 346t331.5 130 t332.5 -130t120.5 -346v-434q0 -253 -119 -398.5t-334 -145.5q-104 0 -185.5 33t-128.5 85.5t-70.5 111t-23.5 116.5q0 9 7.5 14.5t17.5 5.5h53q23 0 23 -22q0 -115 89 -182.5t218 -67.5q170 0 261 119t91 333z" />
<glyph unicode=":" horiz-adv-x="417" d="M113 938q0 43 26.5 69.5t69.5 26.5t69.5 -26.5t26.5 -69.5t-26.5 -68.5t-69.5 -25.5t-69.5 25.5t-26.5 68.5zM113 84q0 43 26.5 69.5t69.5 26.5t69.5 -26.5t26.5 -69.5t-26.5 -68.5t-69.5 -25.5t-69.5 25.5t-26.5 68.5z" />
<glyph unicode=";" horiz-adv-x="423" d="M123 938q0 43 26.5 69.5t69.5 26.5t69.5 -26.5t26.5 -69.5t-26.5 -68.5t-69.5 -25.5t-69.5 25.5t-26.5 68.5zM113 86q0 41 26.5 67.5t69.5 26.5q47 0 73.5 -33t26.5 -96q0 -72 -17.5 -132.5t-42 -95.5t-51.5 -60t-45.5 -34.5t-25.5 -9.5q-14 0 -14 19v51q0 10 2 15.5 t3.5 7t10.5 8.5q69 59 82 170q-42 0 -70 23.5t-28 72.5z" />
<glyph unicode="&#x3c;" horiz-adv-x="1105" d="M987 1165l-770 -446l770 -428q17 -10 17 -23v-73q0 -6 -4.5 -10.5t-10.5 -4.5q-9 0 -18 6l-852 471q-17 10 -17 25v74q0 12 17 22l850 486q16 8 20 8q6 0 10.5 -4.5t4.5 -10.5v-67q0 -15 -17 -25z" />
<glyph unicode="=" horiz-adv-x="1290" d="M1147 944v-47q0 -10 -7 -16.5t-18 -6.5h-956q-23 0 -23 23v47q0 11 6.5 18t16.5 7h956q10 0 17.5 -7.5t7.5 -17.5zM1147 514v-47q0 -10 -7 -16.5t-18 -6.5h-956q-23 0 -23 23v47q0 11 6.5 18t16.5 7h956q10 0 17.5 -7.5t7.5 -17.5z" />
<glyph unicode="&#x3e;" horiz-adv-x="1105" d="M889 719l-770 446q-17 10 -17 25v67q0 6 4.5 10.5t10.5 4.5q4 0 20 -8l850 -486q17 -10 17 -22v-74q0 -15 -17 -25l-852 -471q-9 -6 -18 -6q-6 0 -10.5 4.5t-4.5 10.5v73q0 13 17 23z" />
<glyph unicode="?" horiz-adv-x="1026" d="M504 338h-53q-23 0 -23 22v35q0 81 21 149t55 116.5t75 91.5t82.5 81t75.5 77t55 89t21 107t-17.5 101.5t-46.5 72.5t-70 46t-84.5 25t-94.5 7q-44 0 -82 -6t-66.5 -14.5t-53 -24.5t-40.5 -29t-30.5 -35t-22 -36t-15.5 -39t-10.5 -36.5t-7.5 -35t-6 -29.5q-4 -18 -27 -18 h-43q-8 0 -15.5 5.5t-6.5 16.5q0 8 1 21.5t9.5 52.5t23.5 75t47 79.5t75 74.5t113 52.5t157 21.5q193 0 303 -89t110 -259q0 -67 -21 -125.5t-55 -102.5t-75.5 -85t-82.5 -82.5t-75 -85.5t-55 -103t-21 -127v-35q0 -22 -24 -22zM383 84q0 43 26.5 69.5t69.5 26.5t69.5 -26.5 t26.5 -69.5t-26.5 -68.5t-69.5 -25.5t-69.5 25.5t-26.5 68.5z" />
<glyph unicode="@" horiz-adv-x="1957" d="M1505 -209v-55q0 -15 -6 -21q-48 -40 -186.5 -82.5t-315.5 -42.5q-150 0 -281 33t-242.5 103t-191 173t-124.5 250.5t-45 327.5v107q0 271 114.5 469.5t314.5 299.5t462 101q191 0 350 -63.5t266 -174t166 -261.5t59 -326v-86q0 -115 -23 -204.5t-58.5 -143t-83.5 -88.5 t-93 -47.5t-92 -12.5q-84 0 -145.5 40t-87.5 118q-45 -88 -122.5 -133t-174.5 -45q-70 0 -134.5 25.5t-119 75t-87 134.5t-32.5 193v120q0 108 32.5 193t87 135t119 75.5t134.5 25.5q99 0 165 -45t99 -105v104q0 25 22 25h54q10 0 17 -7t7 -18v-585q0 -70 14.5 -118 t40.5 -71t52.5 -32t60.5 -9q45 0 86 20t79 63t60.5 125t22.5 192v86q0 108 -28 212t-88 198.5t-145.5 165.5t-209.5 113t-270 42q-166 0 -308 -49.5t-250.5 -143.5t-170.5 -244t-62 -339v-109q0 -169 44.5 -305.5t119.5 -225.5t177.5 -148.5t212 -85t230.5 -25.5 q286 0 473 114q9 6 19 6q16 0 16 -14zM1229 414v184q0 160 -73.5 234.5t-190.5 74.5q-116 0 -194.5 -85.5t-78.5 -246.5v-120q0 -161 78.5 -246.5t194.5 -85.5q41 0 76.5 8t71 28.5t60.5 52t40.5 83.5t15.5 119z" />
<glyph unicode="A" horiz-adv-x="1280" d="M928 516l-295 801l-287 -801h582zM309 422l-145 -406q-7 -16 -23 -16h-65q-15 0 -15 14q0 6 15 43l493 1350q10 27 29 27h74q15 0 26 -25l514 -1374q7 -17 7 -21q0 -14 -15 -14h-65q-19 0 -25 16l-149 406h-656z" />
<glyph unicode="B" horiz-adv-x="1310" d="M217 0q-22 0 -22 23v1386q0 25 22 25h488q98 0 176.5 -20t139 -60.5t93.5 -109t33 -159.5v-32q0 -207 -197 -299q112 -41 175 -135t63 -216v-28q0 -81 -26 -146t-70 -107t-104.5 -70t-125.5 -40t-137 -12h-508zM295 1339v-542h430q322 0 322 256v32q0 58 -19 102.5 t-51 73t-77 46.5t-92.5 25t-102.5 7h-410zM295 702v-608h430q56 0 104 7t97 26t83.5 49t56 81t21.5 118v28q0 83 -31 143.5t-84.5 93t-114.5 47.5t-132 15h-430z" />
<glyph unicode="C" horiz-adv-x="1290" d="M1073 471h70q14 0 14 -16q-4 -96 -43.5 -183t-104.5 -151.5t-157.5 -102.5t-196.5 -38q-106 0 -200 38.5t-163 107.5t-109 171.5t-40 224.5v389q0 164 68 288.5t183 189.5t259 65q207 0 341 -125.5t163 -320.5q3 -25 -22 -25h-64q-13 0 -16 23q-24 152 -132 253t-270 101 q-175 0 -291 -121.5t-116 -327.5v-389q0 -205 117.5 -326.5t291.5 -121.5q164 0 273 105t131 280q2 12 14 12z" />
<glyph unicode="D" horiz-adv-x="1318" d="M668 0h-451q-22 0 -22 23v1386q0 25 22 25h449q107 0 200 -38t162 -107t108.5 -171t39.5 -225v-350q0 -245 -144.5 -394t-363.5 -149zM666 1339h-371v-1245h373q83 0 156.5 31t129 87.5t87.5 142t32 188.5v348q0 206 -117 327t-290 121z" />
<glyph unicode="E" horiz-adv-x="1173" d="M1071 1409v-47q0 -23 -24 -23h-752v-567h608q11 0 18 -7t7 -17v-48q0 -22 -25 -22h-608v-584h752q11 0 17.5 -7t6.5 -17v-47q0 -23 -24 -23h-830q-22 0 -22 23v1386q0 25 22 25h830q10 0 17 -7t7 -18z" />
<glyph unicode="F" horiz-adv-x="1142" d="M1071 1409v-47q0 -23 -24 -23h-752v-608h608q11 0 18 -7t7 -17v-48q0 -22 -25 -22h-608v-614q0 -10 -7 -16.5t-18 -6.5h-53q-22 0 -22 23v1386q0 25 22 25h830q10 0 17 -7t7 -18z" />
<glyph unicode="G" horiz-adv-x="1341" d="M1057 602h-402q-22 0 -22 23v47q0 24 22 24h475q11 0 18 -7t7 -17v-649q0 -10 -7 -16.5t-18 -6.5h-51q-22 0 -22 23v180q-55 -103 -164 -163t-238 -60q-120 0 -218.5 44.5t-162 120.5t-97.5 173t-34 204v387q0 123 39.5 226t108 172.5t162 108t200.5 38.5 q204 0 332.5 -117t167.5 -305q4 -23 4 -37q0 -12 -12 -12h-72q-13 0 -16 23q-9 66 -40 128t-80 113t-123 82t-161 31q-174 0 -290.5 -123t-116.5 -330v-385q0 -205 117.5 -326.5t291.5 -121.5q83 0 152.5 27t114.5 69.5t76.5 96.5t45 106.5t13.5 101.5v127z" />
<glyph unicode="H" horiz-adv-x="1366" d="M1147 0h-53q-23 0 -23 23v671h-776v-671q0 -10 -7 -16.5t-18 -6.5h-53q-22 0 -22 23v1386q0 25 22 25h53q10 0 17.5 -7t7.5 -18v-621h776v621q0 11 6.5 18t16.5 7h53q10 0 17 -7t7 -18v-1386q0 -23 -24 -23z" />
<glyph unicode="I" horiz-adv-x="489" d="M270 0h-53q-22 0 -22 23v1386q0 25 22 25h53q10 0 17.5 -7t7.5 -18v-1386q0 -10 -7 -16.5t-18 -6.5z" />
<glyph unicode="J" horiz-adv-x="983" d="M741 1434h54q10 0 17 -7t7 -18v-999q0 -200 -110.5 -315t-278.5 -115q-77 0 -146.5 29t-124 82t-86.5 136t-32 183v57q0 25 22 25h54q10 0 17 -7t7 -18v-61q0 -160 82 -246t207 -86t207 86t82 246v1003q0 25 22 25z" />
<glyph unicode="K" horiz-adv-x="1234" d="M295 23q0 -10 -7 -16.5t-18 -6.5h-53q-22 0 -22 23v1386q0 25 22 25h53q10 0 17.5 -7t7.5 -18v-807l747 801q3 3 8 8.5t8 8.5t7.5 7t8.5 5.5t9 1.5h76q6 0 10.5 -4.5t4.5 -10.5q0 -11 -15 -26l-518 -551l516 -805q10 -17 10 -23q0 -14 -14 -14h-80q-14 0 -26 20l-478 750 l-274 -295v-452z" />
<glyph unicode="L" horiz-adv-x="1153" d="M1092 70v-47q0 -10 -7 -16.5t-18 -6.5h-850q-22 0 -22 23v1386q0 25 22 25h53q10 0 17.5 -7t7.5 -18v-1315h772q11 0 18 -7t7 -17z" />
<glyph unicode="M" horiz-adv-x="1705" d="M270 0h-53q-22 0 -22 23v1386q0 25 22 25h117q17 0 24 -17l496 -1280l500 1280q7 17 22 17h111q10 0 17 -7t7 -18v-1386q0 -23 -24 -23h-53q-23 0 -23 23v1284l-508 -1291q-8 -16 -24 -16h-52q-16 0 -24 16l-508 1291v-1284q0 -10 -7 -16.5t-18 -6.5z" />
<glyph unicode="N" horiz-adv-x="1384" d="M295 23q0 -10 -7 -16.5t-18 -6.5h-53q-22 0 -22 23v1386q0 25 22 25h55q15 0 26 -18q1 -2 1 -3l791 -1208v1204q0 25 22 25h53q11 0 18 -7t7 -18v-1386q0 -10 -7 -16.5t-18 -6.5h-32q-23 0 -39 27l-799 1220v-1224z" />
<glyph unicode="O" d="M143 522v387q0 123 39.5 226t108 172.5t162 108t200.5 38.5q219 0 364.5 -150t145.5 -395v-387q0 -244 -145 -393t-363 -149q-106 0 -200 38.5t-163 107.5t-109 171.5t-40 224.5zM246 907v-385q0 -205 117.5 -326.5t291.5 -121.5q172 0 289 122t117 326v385 q0 206 -117.5 329.5t-290.5 123.5q-174 0 -290.5 -123t-116.5 -330z" />
<glyph unicode="P" horiz-adv-x="1216" d="M682 573h-387v-550q0 -10 -7 -16.5t-18 -6.5h-53q-22 0 -22 23v1386q0 25 22 25h465q205 0 323.5 -104t118.5 -300v-33q0 -198 -119.5 -311t-322.5 -113zM295 1339v-671h387q68 0 128 18.5t108.5 55.5t77 100.5t28.5 146.5v49q0 67 -19 119.5t-50.5 86.5t-76.5 55.5 t-93 30.5t-103 9h-387z" />
<glyph unicode="Q" d="M655 74q181 0 295 129l-291 246q-8 8 -8 16q0 10 8 18l25 31q10 12 23 12q8 0 20 -10l279 -235q55 107 55 241v385q0 206 -117.5 329.5t-290.5 123.5q-174 0 -290.5 -123t-116.5 -330v-385q0 -205 117.5 -326.5t291.5 -121.5zM1169 16l-143 121q-69 -75 -165 -116 t-206 -41q-106 0 -200 38.5t-163 107.5t-109 171.5t-40 224.5v387q0 123 39.5 226t108 172.5t162 108t200.5 38.5q219 0 364.5 -150t145.5 -395v-387q0 -174 -80 -309l156 -131q5 -4 8 -9.5t3 -8.5l1 -3q0 -7 -6 -16l-31 -37q-8 -8 -18 -8q-8 0 -27 16z" />
<glyph unicode="R" horiz-adv-x="1247" d="M295 1339v-630h387q142 0 242 77t100 218v34q0 67 -19 119.5t-50.5 86.5t-76.5 55.5t-93 30.5t-103 9h-387zM295 614v-591q0 -10 -7 -16.5t-18 -6.5h-53q-22 0 -22 23v1386q0 25 22 25h465q205 0 323.5 -104t118.5 -300v-18q0 -139 -83.5 -243t-243.5 -142l317 -594 q6 -10 6 -19q0 -14 -14 -14h-78q-17 0 -27 20l-313 594h-393z" />
<glyph unicode="S" horiz-adv-x="1222" d="M1044 1067h-53q-22 0 -22 23q-2 59 -17.5 104t-52.5 84.5t-107 60.5t-171 21q-82 0 -144 -13t-111.5 -43t-75.5 -85t-26 -134q0 -76 29 -131.5t78 -89t112.5 -57.5t133.5 -41.5t140 -35.5t133.5 -45.5t112.5 -65.5t78 -101.5t29 -148.5q0 -83 -28 -150t-74.5 -111 t-110 -73.5t-130.5 -42t-140 -12.5q-112 0 -203.5 30.5t-148 77.5t-94.5 107t-53 115.5t-15 107.5q0 24 22 24h58q11 0 17.5 -7t6.5 -17q1 -38 11 -79t39 -90t72.5 -86.5t119 -63t170.5 -25.5q80 0 146.5 16.5t120.5 50t84 92t30 136.5q0 67 -29 115.5t-78 78t-112.5 51 t-133.5 38.5t-140 36.5t-133.5 50.5t-112.5 73.5t-78 112t-29 160.5q0 99 36 172t100 115t144 62t177 20q109 0 193 -26t131 -64.5t76 -90.5t38.5 -95.5t9.5 -87.5q0 -10 -7 -16.5t-18 -6.5z" />
<glyph unicode="T" horiz-adv-x="1181" d="M51 1362v47q0 11 6.5 18t16.5 7h1032q10 0 17 -7t7 -18v-47q0 -23 -24 -23h-465v-1316q0 -10 -7 -16.5t-18 -6.5h-53q-22 0 -22 23v1316h-467q-23 0 -23 23z" />
<glyph unicode="U" horiz-adv-x="1327" d="M1075 1434h53q10 0 17.5 -7t7.5 -18v-887q0 -246 -135.5 -394t-351.5 -148q-217 0 -354.5 148t-137.5 394v887q0 11 6.5 18t16.5 7h53q10 0 17 -7t7 -18v-887q0 -207 109 -327.5t283 -120.5q171 0 279 120.5t108 327.5v887q0 25 22 25z" />
<glyph unicode="V" horiz-adv-x="1275" d="M678 0h-82q-16 0 -23 16l-518 1383q-6 12 -6 20q0 15 14 15h68q20 0 29 -27l479 -1301l483 1311q7 17 23 17h67q6 0 10.5 -4.5t4.5 -10.5q0 -8 -8 -28l-517 -1375q-6 -16 -24 -16z" />
<glyph unicode="W" horiz-adv-x="1863" d="M592 16q-3 -16 -25 -16h-88q-17 0 -22 16l-391 1383l-5 20q0 6 4.5 10.5t10.5 4.5h67q21 0 27 -23l354 -1286l353 1284q7 25 24 25h68q20 0 26 -25l353 -1284l352 1284q7 25 24 25h64q14 0 14 -15q0 -8 -6 -28l-389 -1375q-3 -16 -25 -16h-84q-17 0 -22 16l-342 1252z " />
<glyph unicode="X" horiz-adv-x="1173" d="M139 0h-63q-15 0 -15 14q0 8 15 31l450 674l-452 678q-11 17 -11 22q0 6 4.5 10.5t10.5 4.5h78q14 0 28 -23l406 -606l403 606q16 23 29 23h72q14 0 14 -15q0 -7 -10 -22l-451 -676l455 -684q10 -15 10 -23q0 -14 -14 -14h-68q-6 0 -11 1t-8 2t-6 3.5t-4 3.5t-4 5t-4 5 l-409 619l-412 -619q-16 -20 -33 -20z" />
<glyph unicode="Y" horiz-adv-x="1200" d="M629 0h-54q-22 0 -22 23v608l-500 764q-12 18 -12 24q0 15 14 15h76q15 0 25 -17l450 -690l441 690q11 17 22 17h76q14 0 14 -15q0 -6 -8 -18l-498 -768v-610q0 -23 -24 -23z" />
<glyph unicode="Z" horiz-adv-x="1138" d="M1022 0h-907q-23 0 -23 23v24q0 11 2.5 21.5t5 15.5t7.5 12t6 8l800 1235h-798q-23 0 -23 23v47q0 11 6.5 18t16.5 7h907q10 0 17.5 -7t7.5 -18v-14q0 -23 -19 -54l-807 -1247h801q11 0 18 -7t7 -17v-47q0 -10 -7 -16.5t-18 -6.5z" />
<glyph unicode="[" horiz-adv-x="610" d="M569 1589v-47q0 -22 -24 -22h-271v-1651h271q10 0 17 -7t7 -18v-47q0 -22 -24 -22h-348q-23 0 -23 22v1792q0 11 6.5 18t16.5 7h348q10 0 17 -7t7 -18z" />
<glyph unicode="\" horiz-adv-x="823" d="M758 0h-66q-18 0 -26 20l-609 1379q-6 15 -6 20q0 6 4.5 10.5t10.5 4.5h65q19 0 27 -21l608 -1378q6 -15 6 -21q0 -14 -14 -14z" />
<glyph unicode="]" horiz-adv-x="610" d="M41 1542v47q0 11 7.5 18t17.5 7h348q22 0 22 -25v-1792q0 -22 -22 -22h-348q-25 0 -25 22v47q0 10 7.5 17.5t17.5 7.5h270v1651h-270q-25 0 -25 22z" />
<glyph unicode="^" horiz-adv-x="1030" d="M520 1319l-336 -832q-6 -16 -24 -16h-68q-14 0 -14 14q0 3 6 21l375 911q7 17 22 17h74q18 0 25 -17l366 -913q6 -18 6 -19q0 -14 -14 -14h-72q-15 0 -22 16z" />
<glyph unicode="_" horiz-adv-x="1230" d="M1087 -25v-47q0 -22 -24 -22h-897q-23 0 -23 22v47q0 11 6.5 18t16.5 7h897q10 0 17 -7t7 -18z" />
<glyph unicode="`" horiz-adv-x="620" d="M90 1434h78q17 0 27 -17l143 -235q14 -28 14 -29q0 -14 -14 -14h-66q-13 0 -24 16l-164 246q-8 12 -8 18q0 15 14 15z" />
<glyph unicode="a" horiz-adv-x="1034" d="M770 471h-328q-142 0 -195.5 -48.5t-53.5 -148.5q0 -93 64 -145.5t165 -52.5h47q68 0 122 20.5t87 53t54.5 75.5t29.5 83.5t8 82.5v80zM870 649v-626q0 -23 -24 -23h-53q-23 0 -23 23v122q-34 -79 -117.5 -122t-183.5 -43h-47q-151 0 -240.5 79t-89.5 215q0 150 87 221.5 t261 71.5h330v84q0 37 -1 58.5t-6 57t-14.5 57t-29 48t-47 41t-70.5 25t-98 10.5q-132 0 -186.5 -43.5t-69.5 -130.5q-4 -22 -25 -22h-53q-23 0 -23 22v4q31 266 357 266q73 0 131.5 -14t96 -35t65 -56t41 -66t21.5 -75.5t9.5 -75t1.5 -73.5z" />
<glyph unicode="b" horiz-adv-x="1097" d="M274 143v-120q0 -23 -24 -23h-53q-23 0 -23 23v1386q0 11 6.5 18t16.5 7h53q10 0 17 -7t7 -18v-528q38 71 117 117t184 46q176 0 288 -118.5t112 -327.5v-174q0 -209 -112 -326.5t-288 -117.5q-104 0 -182 45.5t-119 117.5zM274 612v-184q0 -166 83.5 -259t217.5 -93 q135 0 217 92t82 260v168q0 167 -81.5 259.5t-217.5 92.5q-132 0 -216.5 -89t-84.5 -247z" />
<glyph unicode="c" horiz-adv-x="1028" d="M223 596v-168q0 -167 84 -259.5t219 -92.5q107 0 176.5 53.5t104.5 179.5q5 19 22 19h62q14 0 14 -15q0 -8 -2 -20q-7 -38 -22.5 -77.5t-46 -83t-71.5 -76.5t-102.5 -54.5t-134.5 -21.5q-178 0 -290.5 117.5t-112.5 326.5v174q0 210 112 328t289 118q75 0 138 -22 t104 -56t71.5 -79.5t46 -88.5t21.5 -87v-2q0 -15 -14 -15h-62q-17 0 -22 21q-30 116 -98 174.5t-185 58.5q-134 0 -217.5 -93t-83.5 -259z" />
<glyph unicode="d" horiz-adv-x="1097" d="M823 428v184q0 158 -84.5 247t-216.5 89q-136 0 -217.5 -92.5t-81.5 -259.5v-168q0 -168 81.5 -260t215.5 -92q136 0 219.5 93t83.5 259zM823 23v120q-41 -72 -119 -117.5t-182 -45.5q-176 0 -287.5 117.5t-111.5 326.5v174q0 209 111.5 327.5t287.5 118.5q105 0 184 -46 t117 -117v528q0 11 6.5 18t16.5 7h53q11 0 18 -7t7 -18v-1386q0 -10 -7 -16.5t-18 -6.5h-53q-23 0 -23 23z" />
<glyph unicode="e" horiz-adv-x="1048" d="M223 469v-55q0 -157 85.5 -247.5t219.5 -90.5q218 0 289 215q6 18 21 18h63q14 0 14 -14q0 -6 -6 -27q-21 -80 -65.5 -139t-100 -90t-109 -45t-106.5 -14q-179 0 -292 117.5t-113 326.5v174q0 210 112 328t289 118t289.5 -118.5t112.5 -327.5v-106q0 -10 -7 -16.5 t-18 -6.5h-678zM223 565h602v35q0 164 -83 256t-218 92q-134 0 -217.5 -92.5t-83.5 -255.5v-35z" />
<glyph unicode="f" horiz-adv-x="653" d="M571 999v-47q0 -22 -24 -22h-252v-907q0 -10 -7 -16.5t-18 -6.5h-53q-22 0 -22 23v907h-172q-23 0 -23 22v47q0 11 6.5 18t16.5 7h172v18q0 71 4 119t15.5 96.5t34.5 78t60 53.5t92 34.5t131 10.5h15q10 0 17 -7t7 -18v-49q0 -23 -24 -23h-15q-54 0 -89 -3.5t-63.5 -16.5 t-43.5 -31.5t-25 -54t-13 -78.5t-3 -111v-18h252q10 0 17 -7t7 -18z" />
<glyph unicode="g" horiz-adv-x="1046" d="M662 -430h-218q-159 0 -245 80t-86 203q0 151 118 229q-118 51 -118 172q0 74 43 125.5t129 64.5q-72 60 -99.5 121.5t-27.5 141.5q0 140 100 238.5t258 98.5h59q154 0 263 -104v172q0 25 22 25h49q11 0 18 -7.5t7 -17.5v-405q0 -140 -99.5 -240t-259.5 -100h-223 q-137 0 -137 -111q0 -62 41 -85.5t141 -23.5h265q160 0 246.5 -82t86.5 -212q0 -125 -86.5 -204t-246.5 -79zM260 707q0 -105 72 -177.5t194 -72.5h39q121 0 192.5 71.5t73.5 176.5q0 106 -71.5 177.5t-194.5 71.5h-39q-122 0 -194 -71t-72 -176zM217 -145q0 -89 56.5 -140 t177.5 -51h204q122 0 179 50.5t57 140.5q0 91 -57.5 144.5t-178.5 53.5h-204q-120 0 -177 -54t-57 -144z" />
<glyph unicode="h" horiz-adv-x="1122" d="M250 0h-53q-23 0 -23 23v1386q0 11 6.5 18t16.5 7h53q10 0 17 -7t7 -18v-532q87 167 291 167q186 0 289.5 -121.5t103.5 -324.5v-575q0 -23 -24 -23h-53q-23 0 -23 23v573q0 167 -79.5 259.5t-213.5 92.5q-133 0 -212 -92.5t-79 -259.5v-573q0 -23 -24 -23z" />
<glyph unicode="i" horiz-adv-x="468" d="M156 1354q0 36 21 58t56 22t57.5 -22.5t22.5 -57.5t-22.5 -57.5t-57.5 -22.5t-56 22t-21 58zM260 0h-53q-23 0 -23 23v976q0 11 6.5 18t16.5 7h53q10 0 17.5 -7t7.5 -18v-976q0 -10 -7 -16.5t-18 -6.5z" />
<glyph unicode="j" horiz-adv-x="468" d="M156 1354q0 36 21 58t56 22t57.5 -22.5t22.5 -57.5t-22.5 -57.5t-57.5 -22.5t-56 22t-21 58zM207 1024h53q10 0 17.5 -7t7.5 -18v-999q0 -208 -75.5 -309t-262.5 -101q-23 0 -23 23v53q0 11 6.5 18t16.5 7q126 0 181.5 70t55.5 239v999q0 11 6.5 18t16.5 7z" />
<glyph unicode="k" horiz-adv-x="1032" d="M274 23q0 -23 -24 -23h-53q-23 0 -23 23v1386q0 11 6.5 18t16.5 7h53q10 0 17 -7t7 -18v-1047l529 631q8 11 12.5 16t15.5 10t25 5h66q14 0 14 -14q0 -8 -10 -21l-365 -434l408 -516q12 -15 12 -25q0 -14 -14 -14h-80q-17 0 -33 20l-362 461l-218 -256v-202z" />
<glyph unicode="l" horiz-adv-x="448" d="M250 0h-53q-23 0 -23 23v1386q0 11 6.5 18t16.5 7h53q10 0 17 -7t7 -18v-1386q0 -23 -24 -23z" />
<glyph unicode="m" horiz-adv-x="1740" d="M274 23q0 -23 -24 -23h-53q-23 0 -23 23v976q0 11 6.5 18t16.5 7h53q10 0 17 -7t7 -18v-122q14 29 35.5 56t54 53.5t81 42t106.5 15.5q247 0 332 -213q90 213 319 213q203 0 289 -113.5t86 -344.5v-563q0 -10 -7 -16.5t-18 -6.5h-53q-22 0 -22 23v563q0 83 -12.5 145 t-42 113t-85 77.5t-135.5 26.5q-148 0 -212 -90.5t-64 -271.5v-563q0 -10 -7 -16.5t-18 -6.5h-53q-23 0 -23 23v563q0 182 -63.5 272t-210.5 90q-277 0 -277 -362v-563z" />
<glyph unicode="n" horiz-adv-x="1122" d="M250 0h-53q-23 0 -23 23v976q0 11 6.5 18t16.5 7h53q10 0 17 -7t7 -18v-125q87 170 291 170q186 0 289.5 -121.5t103.5 -324.5v-575q0 -23 -24 -23h-53q-23 0 -23 23v573q0 167 -79.5 259.5t-213.5 92.5q-133 0 -212 -92.5t-79 -259.5v-573q0 -23 -24 -23z" />
<glyph unicode="o" horiz-adv-x="1044" d="M123 424v174q0 210 111 328t288 118q176 0 288 -118.5t112 -327.5v-174q0 -209 -112 -326.5t-288 -117.5q-177 0 -288 117t-111 327zM223 596v-168q0 -167 82.5 -259.5t216.5 -92.5q135 0 217 92t82 260v168q0 167 -82 259.5t-217 92.5q-134 0 -216.5 -93t-82.5 -259z " />
<glyph unicode="p" horiz-adv-x="1097" d="M274 612v-184q0 -166 83.5 -259t217.5 -93q135 0 217 92t82 260v168q0 167 -81.5 259.5t-217.5 92.5q-132 0 -216.5 -89t-84.5 -247zM274 143v-530q0 -23 -24 -23h-53q-23 0 -23 23v1386q0 11 6.5 18t16.5 7h53q10 0 17 -7t7 -18v-118q38 71 117 117t184 46 q176 0 288 -118.5t112 -327.5v-174q0 -209 -112 -326.5t-288 -117.5q-104 0 -182 45.5t-119 117.5z" />
<glyph unicode="q" horiz-adv-x="1099" d="M825 -387v530q-41 -72 -120 -117.5t-183 -45.5q-176 0 -287.5 117.5t-111.5 326.5v174q0 209 111.5 327.5t287.5 118.5q105 0 185 -46.5t118 -116.5v118q0 11 6.5 18t16.5 7h53q11 0 18 -7t7 -18v-1386q0 -10 -7 -16.5t-18 -6.5h-53q-23 0 -23 23zM825 428v184 q0 158 -85.5 247t-217.5 89q-136 0 -217.5 -92.5t-81.5 -259.5v-168q0 -168 82 -260t217 -92q134 0 218.5 93t84.5 259z" />
<glyph unicode="r" horiz-adv-x="710" d="M250 0h-53q-23 0 -23 23v976q0 11 6.5 18t16.5 7h49q10 0 17 -7t7 -18v-163q81 188 301 188h33q10 0 17.5 -7t7.5 -18v-49q0 -22 -25 -22h-33q-67 0 -120 -25.5t-85.5 -64.5t-54 -90.5t-29.5 -99.5t-8 -95v-530q0 -23 -24 -23z" />
<glyph unicode="s" horiz-adv-x="966" d="M854 268q0 -148 -102.5 -218t-268.5 -70q-157 0 -256.5 78.5t-113.5 193.5q0 10 4 14q7 10 18 10h53q20 0 25 -18q19 -77 88.5 -129.5t183.5 -52.5q119 0 194 45t75 147q0 62 -34.5 101.5t-89.5 57.5t-121.5 30.5t-133.5 30t-122 46.5t-89.5 89.5t-34.5 150.5 q0 72 31.5 126.5t83 84.5t107.5 44.5t114 14.5q75 0 135.5 -15t97.5 -38.5t63.5 -52.5t38 -58t18 -52.5t6.5 -38.5l1 -15v-4q-3 -18 -22 -18h-55q-20 0 -23 22q-4 25 -10 44.5t-23 45.5t-43.5 43t-73.5 29t-110 12q-40 0 -78 -8.5t-75.5 -27t-60 -54t-22.5 -84.5 q0 -65 34.5 -107t89.5 -61.5t121.5 -32.5t133.5 -30.5t122 -45t89.5 -85.5t34.5 -144z" />
<glyph unicode="t" horiz-adv-x="653" d="M547 0h-17q-66 0 -116 8t-85.5 22t-60 40.5t-39 54t-22 72.5t-10 87t-2.5 105v541h-172q-23 0 -23 22v47q0 11 6.5 18t16.5 7q95 0 135.5 35t40.5 141v66q0 24 22 24h49q11 0 18 -7t7 -17v-242h252q10 0 17 -7t7 -18v-47q0 -22 -24 -22h-252v-541q0 -65 2.5 -105.5 t12 -76.5t24.5 -55t42.5 -33t63.5 -18.5t90 -4.5h17q11 0 17.5 -7t6.5 -17v-49q0 -23 -24 -23z" />
<glyph unicode="u" horiz-adv-x="1091" d="M840 1024h53q11 0 18 -7t7 -18v-976q0 -10 -7 -16.5t-18 -6.5h-53q-23 0 -23 23v112q-35 -65 -106.5 -110t-184.5 -45q-173 0 -267.5 115t-94.5 329v575q0 25 22 25h54q10 0 17 -7t7 -18v-571q0 -352 262 -352q133 0 212 92t79 260v571q0 11 6.5 18t16.5 7z" />
<glyph unicode="v" horiz-adv-x="974" d="M528 0h-73q-16 0 -23 16l-383 969q-8 20 -8 25q0 14 14 14h68q18 0 24 -16l349 -897l335 897q7 16 23 16h66q14 0 14 -14q0 -10 -8 -29l-373 -965q-6 -16 -25 -16z" />
<glyph unicode="w" horiz-adv-x="1462" d="M477 16q-6 -16 -24 -16h-74q-18 0 -23 16l-309 967q-6 18 -6 27q0 14 14 14h64q19 0 26 -25l275 -882l258 882q6 25 27 25h53q20 0 26 -25l273 -882l260 882q7 25 24 25h66q14 0 14 -14q0 -6 -6 -27l-299 -967q-6 -16 -24 -16h-74q-18 0 -25 23l-262 849z" />
<glyph unicode="x" horiz-adv-x="864" d="M123 0h-64q-14 0 -14 14q0 10 18 35l312 469l-307 467q-13 17 -13 25q0 14 15 14h67q25 0 39 -23l262 -409l258 409q16 23 39 23h62q14 0 14 -14q0 -8 -12 -23l-301 -469l305 -469q16 -24 16 -35q0 -14 -14 -14h-64q-24 0 -36 20l-273 422l-276 -422q-16 -20 -33 -20z " />
<glyph unicode="y" horiz-adv-x="997" d="M172 -410h-82q-22 0 -22 23v53q0 25 22 25h82q98 0 147.5 45t81.5 133l54 149l-396 967q-8 19 -8 25q0 14 15 14h69q17 0 27 -23l350 -866l336 873q7 16 22 16h72q14 0 14 -14q0 -8 -10 -31l-465 -1165q-48 -122 -113.5 -173t-195.5 -51z" />
<glyph unicode="z" horiz-adv-x="892" d="M786 0h-682q-22 0 -22 23v30q0 14 22 45l580 830h-580q-22 0 -22 22v49q0 25 22 25h682q10 0 17.5 -7t7.5 -18v-28q0 -9 -2.5 -18t-5 -13.5t-7 -11.5t-5.5 -8l-572 -824h567q11 0 18 -7t7 -17v-49q0 -10 -7 -16.5t-18 -6.5z" />
<glyph unicode="{" horiz-adv-x="677" d="M637 -156v-47q0 -22 -25 -22q-79 0 -137.5 13t-98.5 41t-65.5 64t-39 91t-18.5 111.5t-5 135.5v205q0 78 -56.5 141.5t-128.5 63.5q-22 0 -22 23v55q0 24 22 24q71 0 128 64t57 143v205q0 67 3.5 117.5t13 100.5t26.5 85t44 66.5t65.5 50t91 29t120.5 10.5q10 0 17.5 -7 t7.5 -18v-47q0 -22 -25 -22q-61 0 -104.5 -9.5t-72.5 -32t-46.5 -49.5t-26.5 -73t-11.5 -90t-2.5 -113v-205q0 -192 -166 -252q166 -64 166 -260v-205q0 -51 1.5 -86t5.5 -73t12 -63t21.5 -50t33 -40t46.5 -27.5t62.5 -17.5t81.5 -5q10 0 17.5 -7.5t7.5 -17.5z" />
<glyph unicode="|" horiz-adv-x="448" d="M250 -291h-53q-23 0 -23 23v1964q0 24 23 24h53q10 0 17 -7t7 -17v-1964q0 -23 -24 -23z" />
<glyph unicode="}" horiz-adv-x="677" d="M41 -203v47q0 10 7.5 17.5t17.5 7.5q46 0 81.5 5t62.5 17.5t46.5 27.5t33 40t21.5 50t12 63t5.5 73t1.5 86v205q0 196 166 260q-166 60 -166 252v205q0 69 -2.5 113t-11.5 90t-26.5 73t-46.5 49.5t-72.5 32t-104.5 9.5q-25 0 -25 22v47q0 11 7.5 18t17.5 7 q68 0 120.5 -10.5t91 -29t65.5 -50t44 -66.5t26.5 -85t13 -100.5t3.5 -117.5v-205q0 -79 56.5 -143t127.5 -64q23 0 23 -24v-55q0 -23 -23 -23q-72 0 -128 -63.5t-56 -141.5v-205q0 -79 -5 -135.5t-18.5 -111.5t-39 -91t-65.5 -64t-98.5 -41t-137.5 -13q-25 0 -25 22z" />
<glyph unicode="~" horiz-adv-x="1296" d="M229 571h-49q-22 0 -22 23q0 118 67.5 193t194.5 75q58 0 115 -20t102 -49t86.5 -58t85 -49t82.5 -20q78 0 114.5 52.5t36.5 119.5q0 24 23 24h49q11 0 18 -7t7 -17q0 -111 -67.5 -189t-184.5 -78q-59 0 -125 31t-115 67.5t-111.5 67.5t-117.5 31q-164 0 -164 -174 q0 -10 -7 -16.5t-18 -6.5z" />
<glyph unicode="&#xa1;" horiz-adv-x="454" d="M324 940q0 -43 -27 -69.5t-70 -26.5t-69.5 26.5t-26.5 69.5t26.5 68.5t69.5 25.5t70 -26t27 -68zM258 -410h-53q-11 0 -18 7t-7 18v1049q0 22 25 22h53q23 0 23 -22v-1049q0 -11 -6.5 -18t-16.5 -7z" />
<glyph unicode="&#xa2;" horiz-adv-x="1028" d="M575 23q0 -23 -24 -23h-49q-23 0 -23 23v163q-159 15 -257.5 132t-98.5 311v153q0 196 98 313t258 132v162q0 24 23 24h49q11 0 17.5 -6.5t6.5 -17.5v-162q79 -9 142 -44t100.5 -84.5t59 -100.5t28.5 -103v-2q0 -14 -14 -14h-62q-17 0 -22 20q-30 116 -98 175t-185 59 q-134 0 -217.5 -93.5t-83.5 -259.5v-147q0 -167 84 -259.5t219 -92.5q107 0 176.5 53.5t104.5 179.5q5 18 22 18h62q14 0 14 -14q0 -8 -2 -20q-6 -35 -20 -72t-40.5 -77.5t-62 -73.5t-89 -57.5t-116.5 -31.5v-163z" />
<glyph unicode="&#xa3;" horiz-adv-x="1222" d="M1130 344q0 -44 -6.5 -87.5t-26.5 -95.5t-52 -90.5t-89 -64.5t-131 -26q-69 0 -139 20.5t-120.5 45.5t-119.5 49.5t-131 31.5q-44 -69 -106 -106t-109 -37q-21 0 -26 20l-8 29q-5 15 -5 18q0 14 15 19q102 38 149 102t47 176q0 123 -45 311h-164q-22 0 -22 23v47 q0 25 22 25h142q-31 134 -31 270q0 191 125 300.5t322 109.5q98 0 177.5 -26t128.5 -65.5t82.5 -89.5t46.5 -96t13 -88q0 -22 -25 -22h-53q-22 0 -22 22q-3 117 -91 193.5t-257 76.5q-70 0 -130.5 -17.5t-110 -53.5t-78 -98.5t-28.5 -145.5q0 -127 33 -270h486q10 0 17 -7 t7 -18v-47q0 -23 -24 -23h-461q41 -180 41 -311q0 -73 -19 -135q69 -8 159.5 -43.5t171.5 -65.5t140 -30t100 21t63 60.5t31 84.5t11 104q0 23 23 23h53q24 0 24 -23z" />
<glyph unicode="&#xa4;" horiz-adv-x="1159" d="M903 729q0 139 -96 232.5t-229 93.5q-130 0 -226 -94t-96 -232q0 -144 95.5 -238t226.5 -94q133 0 229 94.5t96 237.5zM188 266q-17 -17 -32 2l-35 35q-17 14 0 31l129 131q-92 113 -92 264q0 147 92 260l-129 129q-15 16 2 33l35 35q17 17 30 0l131 -131q115 88 259 88 q148 0 262 -90l129 129q17 17 32 2l35 -35q8 -7 8 -17t-8 -18l-127 -127q92 -113 92 -258q0 -149 -92 -262l129 -131q19 -16 2 -33l-34 -35q-8 -8 -18 -8t-17 8l-131 131q-114 -90 -262 -90q-144 0 -259 88z" />
<glyph unicode="&#xa5;" horiz-adv-x="1200" d="M653 23q0 -23 -24 -23h-54q-22 0 -22 23v516h-418q-22 0 -22 22v47q0 25 22 25h416l-143 221h-273q-22 0 -22 23v47q0 24 22 24h209l-278 426q-13 20 -13 25q0 14 15 14h75q15 0 25 -16l438 -670l428 670q11 16 23 16h76q14 0 14 -14q0 -7 -8 -19l-281 -432h211 q11 0 18 -7t7 -17v-47q0 -10 -7 -16.5t-18 -6.5h-272l-144 -221h416q11 0 18 -7.5t7 -17.5v-47q0 -22 -25 -22h-416v-516z" />
<glyph unicode="&#xa6;" horiz-adv-x="448" d="M174 915v781q0 24 23 24h53q10 0 17 -7t7 -17v-781q0 -11 -7 -17.5t-17 -6.5h-53q-23 0 -23 24zM174 -268v809q0 24 23 24h53q10 0 17 -6.5t7 -17.5v-809q0 -23 -24 -23h-53q-23 0 -23 23z" />
<glyph unicode="&#xa7;" horiz-adv-x="966" d="M127 754q0 -55 37.5 -92.5t106.5 -58t139.5 -33t165.5 -28t155 -32.5q115 54 115 168q0 50 -38.5 83t-107.5 49.5t-142.5 27.5t-165.5 27t-154 38q-111 -51 -111 -149zM483 -20q-203 0 -331 79t-142 193q0 10 4 14q7 10 19 10h53q20 0 25 -18q18 -78 116.5 -131 t257.5 -53q77 0 141 11t117 34.5t83 67t30 102.5q0 47 -35.5 79t-94 47.5t-133 29t-152 23t-152 30t-133 49t-94 81.5t-35.5 126q0 124 116 192q-106 69 -106 197q0 77 40 135.5t105.5 91t137 48.5t145.5 16q94 0 170.5 -15t122.5 -39t79.5 -53t48.5 -57.5t23 -52.5t9 -39 v-15v-4q-3 -18 -23 -18h-55q-20 0 -23 22q-4 25 -12 45t-31 46t-59 43.5t-100.5 29.5t-149.5 12q-55 0 -108 -9.5t-105 -30.5t-83.5 -61t-31.5 -95q0 -60 44.5 -99.5t116 -58.5t158 -32.5t172.5 -30t157.5 -41.5t116 -76.5t44.5 -126.5q0 -132 -108 -207q118 -61 118 -182 q0 -81 -36.5 -142t-102.5 -96.5t-149.5 -53t-184.5 -17.5z" />
<glyph unicode="&#xa8;" horiz-adv-x="649" d="M410 1292q0 36 21 58t56 22t57.5 -22.5t22.5 -57.5t-22.5 -57.5t-57.5 -22.5t-56 22t-21 58zM82 1292q0 35 21.5 57.5t56.5 22.5t57.5 -22.5t22.5 -57.5t-22.5 -57.5t-57.5 -22.5t-56.5 22.5t-21.5 57.5z" />
<glyph unicode="&#xa9;" horiz-adv-x="1681" d="M840 -20q-115 0 -220 29.5t-193.5 90t-154 146t-102.5 204t-37 257.5q0 142 37 263t102.5 209t154 150.5t193.5 93.5t220 31q145 0 272.5 -49.5t225 -142t154 -236t56.5 -319.5q0 -173 -56.5 -313t-154 -229.5t-225 -137t-272.5 -47.5zM840 70q124 0 233 40.5t193 118 t133 201t49 277.5q0 157 -49 283.5t-133 207t-193 123.5t-233 43q-123 0 -232 -43t-193 -123.5t-133 -207t-49 -283.5q0 -155 49 -278.5t133.5 -200.5t193 -117.5t231.5 -40.5zM639 780v-118q0 -119 55.5 -183.5t147.5 -64.5q77 0 124.5 39.5t75.5 138.5q5 18 23 18h61 q21 0 13 -35q-11 -45 -30.5 -85.5t-53 -81.5t-88.5 -65t-125 -24q-132 0 -216.5 89.5t-84.5 248.5v125q0 160 83.5 250t215.5 90q73 0 131 -26.5t91.5 -70t52 -87t26.5 -90.5q2 -17 -15 -17h-61q-18 0 -23 19q-24 90 -70.5 134t-131.5 44q-92 0 -146.5 -64.5t-54.5 -183.5z " />
<glyph unicode="&#xaa;" horiz-adv-x="860" d="M659 971h-276q-91 0 -133.5 -36.5t-42.5 -117.5q0 -74 43 -114.5t125 -40.5h55q94 0 161.5 69.5t67.5 194.5v45zM207 1182h-55q-23 0 -23 22q0 109 81.5 175.5t231.5 66.5q174 0 247 -81t73 -230v-527q0 -22 -25 -22h-55q-23 0 -23 22v113q-28 -77 -94.5 -114.5 t-150.5 -37.5h-54q-108 0 -183 65.5t-75 180.5q0 116 76.5 179t202.5 63h278v88q0 104 -47.5 156.5t-169.5 52.5q-211 0 -211 -150q0 -22 -24 -22z" />
<glyph unicode="&#xab;" horiz-adv-x="1114" d="M956 219q-7 0 -28 14l-338 254q-17 14 -17 27v74q0 12 17 26l338 254q22 15 28 15t10.5 -4.5t4.5 -10.5v-71q0 -14 -17 -25l-288 -217l288 -213q17 -11 17 -25v-84q0 -14 -15 -14zM506 219q-8 0 -29 14l-358 254q-17 14 -17 27v74q0 12 17 26l358 254q23 15 29 15 q14 0 14 -15v-71q0 -14 -16 -25l-305 -217l305 -213q16 -11 16 -25v-84q0 -14 -14 -14z" />
<glyph unicode="&#xac;" horiz-adv-x="1290" d="M1047 672h-881q-23 0 -23 22v47q0 11 6.5 18t16.5 7h956q10 0 17.5 -7t7.5 -18v-473q0 -22 -25 -22h-53q-22 0 -22 22v404z" />
<glyph unicode="&#xad;" horiz-adv-x="0" />
<glyph unicode="&#xae;" horiz-adv-x="1204" d="M600 586q-108 0 -201.5 35t-164.5 100.5t-111.5 168.5t-40.5 232q0 127 40.5 230.5t111.5 170t164.5 102.5t201.5 36q146 0 262.5 -61t188 -185t71.5 -293q0 -129 -41 -232t-112.5 -168.5t-165.5 -100.5t-203 -35zM600 666q91 0 169 29t137 85t92.5 143.5t33.5 198.5 q0 215 -122.5 337t-309.5 122q-185 0 -306.5 -122t-121.5 -337q0 -111 33.5 -199.5t92 -143.5t135.5 -84t167 -29zM496 1151h151q46 0 76.5 26t30.5 74v9q0 98 -107 98h-151v-207zM477 836h-51q-16 0 -16 20v559q0 19 20 19h232q81 0 129.5 -46t48.5 -131v-4 q0 -58 -27 -100.5t-102 -67.5l120 -227q5 -8 5 -12q0 -10 -11 -10h-69q-11 0 -19 16l-116 223h-125v-219q0 -20 -19 -20z" />
<glyph unicode="&#xaf;" horiz-adv-x="866" d="M698 1348q10 0 17.5 -7t7.5 -18v-47q0 -10 -7 -16.5t-18 -6.5h-532q-23 0 -23 23v47q0 11 6.5 18t16.5 7h532z" />
<glyph unicode="&#xb0;" horiz-adv-x="684" d="M342 915q-108 0 -184 75t-76 186q0 109 76 183.5t184 74.5q107 0 183.5 -74.5t76.5 -183.5q0 -111 -76.5 -186t-183.5 -75zM342 1001q65 0 112.5 50.5t47.5 124.5q0 73 -47.5 122.5t-112.5 49.5q-67 0 -113.5 -49.5t-46.5 -122.5q0 -74 46.5 -124.5t113.5 -50.5z" />
<glyph unicode="&#xb1;" horiz-adv-x="1290" d="M672 307h-54q-22 0 -22 31v436h-430q-23 0 -23 31v39q0 24 23 24h430v439q0 24 22 24h54q10 0 17 -6.5t7 -17.5v-439h426q11 0 18 -7t7 -17v-39q0 -31 -25 -31h-426v-436q0 -31 -24 -31zM166 94h956q11 0 18 -7t7 -17v-47q0 -10 -7 -16.5t-18 -6.5h-956q-23 0 -23 23v47 q0 24 23 24z" />
<glyph unicode="&#xb2;" horiz-adv-x="819" d="M137 586q-20 0 -20 20v45q0 28 24 49l353 332q52 48 73 87t21 89q0 70 -49.5 109t-130.5 39q-80 0 -133.5 -35.5t-53.5 -95.5q0 -9 -6.5 -15t-15.5 -6h-54q-20 0 -20 21q0 90 80 155.5t205 65.5q134 0 207 -73t73 -165q0 -119 -108 -219l-332 -311h432q9 0 14.5 -7 t5.5 -16v-49q0 -20 -20 -20h-545z" />
<glyph unicode="&#xb3;" horiz-adv-x="819" d="M408 573q-83 0 -146.5 24t-96 59.5t-48.5 69t-17 60.5q0 9 6 16t15 7h51q9 0 16 -6.5t9 -14.5q13 -63 71.5 -94.5t139.5 -31.5q100 0 156.5 42.5t56.5 114.5q0 77 -50.5 117.5t-142.5 40.5h-68q-9 0 -14.5 6t-5.5 14v50q0 20 20 20h68q73 0 125.5 40.5t52.5 104.5 q0 71 -56 107.5t-142 36.5q-81 0 -137.5 -32.5t-63.5 -94.5q0 -9 -6 -15t-15 -6h-53q-9 0 -15 6t-5 15q1 23 9 49t29.5 56.5t53.5 55t86 40.5t121 16q135 0 214 -68.5t79 -160.5q0 -126 -132 -187q70 -29 108 -84t38 -127q0 -44 -19.5 -87t-56.5 -79t-98 -58t-137 -22z" />
<glyph unicode="&#xb4;" horiz-adv-x="620" d="M453 1434h77q6 0 10.5 -4.5t4.5 -10.5t-8 -18l-164 -246q-11 -16 -25 -16h-65q-15 0 -15 14q0 4 3 10t7.5 12t4.5 7l143 235q10 17 27 17z" />
<glyph unicode="&#xb5;" horiz-adv-x="1091" d="M264 -387q0 -23 -24 -23h-54q-22 0 -22 23v1386q0 25 22 25h54q10 0 17 -7t7 -18v-571q0 -352 262 -352q133 0 212 92t79 260v571q0 11 6.5 18t16.5 7h53q11 0 18 -7t7 -18v-976q0 -10 -7 -16.5t-18 -6.5h-53q-23 0 -23 23v112q-35 -65 -106.5 -110t-184.5 -45 q-86 0 -154.5 29.5t-107.5 84.5v-481z" />
<glyph unicode="&#xb6;" horiz-adv-x="1124" d="M831 1339h-256v-1316q0 -23 -24 -23h-51q-23 0 -23 23v624q-162 0 -268.5 104t-106.5 273v49q0 168 105.5 264.5t269.5 96.5h428q11 0 18 -7t7 -18v-1386q0 -10 -7 -16.5t-18 -6.5h-51q-23 0 -23 23v1316z" />
<glyph unicode="&#xb7;" horiz-adv-x="397" d="M135 842q0 43 26.5 69.5t69.5 26.5t70 -26.5t27 -69.5q0 -42 -27 -68t-70 -26t-69.5 25.5t-26.5 68.5z" />
<glyph unicode="&#xb8;" horiz-adv-x="516" d="M242 -420q-92 0 -144 58q-14 16 -2 32l31 35q12 15 33 -6q33 -33 84 -33q13 0 27.5 4.5t30 23.5t15.5 50v10q0 34 -21 50t-50 16q-31 0 -64 -23q-15 -10 -20 -10q-9 0 -21 4l-24 10q-14 6 -15.5 14t7.5 33l69 191q6 14 17 14h59q14 0 14 -14q0 -8 -6 -23l-41 -116 q20 4 35 4q24 0 49.5 -7.5t51 -24t41.5 -47t16 -71.5v-10q0 -28 -8 -54t-26 -52t-53.5 -42t-84.5 -16z" />
<glyph unicode="&#xb9;" horiz-adv-x="819" d="M659 649v-43q0 -20 -22 -20h-457q-20 0 -20 20v43q0 9 5.5 16t14.5 7h185v561h-185q-7 0 -13.5 4.5t-6.5 15.5v37q0 9 5.5 16t14.5 7q53 0 90 9t56 26t27 30.5t14 32.5q7 23 26 23h47q9 0 16 -7t7 -16v-739h174q10 0 16 -7t6 -16z" />
<glyph unicode="&#xba;" horiz-adv-x="872" d="M104 952v111q0 179 80 281t250 102t251 -101.5t81 -277.5v-111q0 -179 -80 -281t-250 -102t-251 101.5t-81 277.5zM207 1065v-104q0 -295 229 -295q131 0 179.5 71t48.5 221v105q0 150 -55.5 220.5t-174.5 70.5q-125 0 -176 -72t-51 -217z" />
<glyph unicode="&#xbb;" horiz-adv-x="1114" d="M158 219q-15 0 -15 14v72q0 14 17 25l289 217l-289 213q-17 11 -17 24v84q0 6 4.5 10.5t10.5 4.5t28 -15l338 -254q17 -14 17 -26v-74q0 -13 -17 -27l-338 -254q-21 -14 -28 -14zM608 219q-14 0 -14 14v72q0 14 16 25l305 217l-305 213q-16 11 -16 24v84q0 15 14 15 q6 0 29 -15l358 -254q17 -14 17 -26v-74q0 -13 -17 -27l-358 -254q-21 -14 -29 -14z" />
<glyph unicode="&#xbc;" horiz-adv-x="1843" d="M571 0h-67q-15 0 -15 14q0 3 9 21l751 1378q1 1 3 4.5t3 5.5t3 4.5t4.5 3.5t6 2t7.5 1h67q6 0 10.5 -4.5t4.5 -10.5q0 -4 -8 -20l-752 -1379q-12 -20 -27 -20zM616 649v-43q0 -20 -22 -20h-457q-20 0 -20 20v43q0 9 5.5 16t14.5 7h185v561h-185q-7 0 -13.5 4.5t-6.5 15.5 v37q0 9 5.5 16t14.5 7q53 0 90 9t56 26t27 30.5t14 32.5q7 23 26 23h47q9 0 16 -7t7 -16v-739h174q10 0 16 -7t6 -16zM1690 225v-43q0 -20 -21 -20h-115v-142q0 -9 -6.5 -14.5t-15.5 -5.5h-53q-23 0 -23 20v142h-436q-23 0 -23 20v41q0 19 13 37l428 567q15 21 28 21h66 q9 0 15.5 -7t6.5 -16v-577h115q9 0 15 -7t6 -16zM1456 248v465l-348 -465h348z" />
<glyph unicode="&#xbd;" horiz-adv-x="1843" d="M571 0h-67q-15 0 -15 14q0 3 9 21l751 1378q1 1 3 4.5t3 5.5t3 4.5t4.5 3.5t6 2t7.5 1h67q6 0 10.5 -4.5t4.5 -10.5q0 -4 -8 -20l-752 -1379q-12 -20 -27 -20zM616 649v-43q0 -20 -22 -20h-457q-20 0 -20 20v43q0 9 5.5 16t14.5 7h185v561h-185q-7 0 -13.5 4.5t-6.5 15.5 v37q0 9 5.5 16t14.5 7q53 0 90 9t56 26t27 30.5t14 32.5q7 23 26 23h47q9 0 16 -7t7 -16v-739h174q10 0 16 -7t6 -16zM1161 0q-20 0 -20 20v46q0 28 24 49l353 331q52 48 73 87.5t21 89.5q0 70 -49 108.5t-131 38.5q-80 0 -133.5 -35.5t-53.5 -95.5q0 -9 -6.5 -15t-15.5 -6 h-54q-20 0 -20 21q0 90 80 155.5t205 65.5q134 0 207 -72.5t73 -164.5q0 -120 -108 -220l-332 -311h432q9 0 14.5 -6.5t5.5 -15.5v-50q0 -20 -20 -20h-545z" />
<glyph unicode="&#xbe;" horiz-adv-x="1843" d="M571 0h-67q-15 0 -15 14q0 3 9 21l751 1378q1 1 3 4.5t3 5.5t3 4.5t4.5 3.5t6 2t7.5 1h67q6 0 10.5 -4.5t4.5 -10.5q0 -4 -8 -20l-752 -1379q-12 -20 -27 -20zM1690 225v-43q0 -20 -21 -20h-115v-142q0 -9 -6.5 -14.5t-15.5 -5.5h-53q-23 0 -23 20v142h-436q-23 0 -23 20 v41q0 19 13 37l428 567q15 21 28 21h66q9 0 15.5 -7t6.5 -16v-577h115q9 0 15 -7t6 -16zM385 573q-83 0 -146.5 24t-96 59.5t-48 69t-16.5 60.5q0 9 5.5 16t14.5 7h52q9 0 15.5 -6.5t8.5 -14.5q13 -63 71.5 -94.5t139.5 -31.5q100 0 156.5 42.5t56.5 114.5q0 77 -50 117.5 t-142 40.5h-68q-9 0 -15 6t-6 14v50q0 20 21 20h68q73 0 125.5 40.5t52.5 104.5q0 71 -56.5 107.5t-142.5 36.5q-81 0 -137.5 -32.5t-63.5 -94.5q0 -21 -20 -21h-53q-9 0 -15.5 6t-5.5 15q1 23 9 49t29.5 56.5t53.5 55t86 40.5t121 16q135 0 214 -68.5t79 -160.5 q0 -126 -131 -187q70 -29 107.5 -84t37.5 -127q0 -44 -19.5 -87t-56.5 -79t-98 -58t-137 -22zM1456 248v465l-348 -465h348z" />
<glyph unicode="&#xbf;" horiz-adv-x="1026" d="M604 940q0 -43 -26.5 -69.5t-69.5 -26.5t-69.5 26.5t-26.5 69.5t26.5 68.5t69.5 25.5t69.5 -25.5t26.5 -68.5zM483 686h54q22 0 22 -22v-35q0 -81 -21 -149t-55 -116.5t-75.5 -91.5t-82.5 -81t-75 -77t-55 -89t-21 -107t17.5 -101.5t46.5 -72.5t70 -46t84.5 -25t94.5 -7 q44 0 82 6t66.5 14.5t53 24.5t40.5 29t30.5 35t22 36t15.5 39t10.5 36.5t7.5 35t6 29.5q5 18 27 18h43q8 0 15.5 -5.5t6.5 -16.5q0 -8 -1 -21.5t-9.5 -52.5t-23.5 -75t-47 -79.5t-75 -74.5t-113 -52.5t-157 -21.5q-193 0 -303 89t-110 259q0 67 21 125.5t55 102.5t75 85 l82.5 82.5t75.5 85.5t55 103t21 127v35q0 22 24 22z" />
<glyph unicode="&#xc0;" horiz-adv-x="1280" d="M420 1843h78q16 0 26 -16l144 -236q0 -1 4 -7t7 -11.5t3 -9.5q0 -15 -14 -15h-66q-13 0 -24 17l-164 245q-8 12 -8 19q0 14 14 14zM928 516l-295 801l-287 -801h582zM309 422l-145 -406q-7 -16 -23 -16h-65q-15 0 -15 14q0 6 15 43l493 1350q10 27 29 27h74q15 0 26 -25 l514 -1374q7 -17 7 -21q0 -14 -15 -14h-65q-19 0 -25 16l-149 406h-656z" />
<glyph unicode="&#xc1;" horiz-adv-x="1280" d="M782 1843h78q14 0 14 -14q0 -7 -8 -19l-164 -245q-11 -17 -24 -17h-66q-14 0 -14 15q0 4 3 9.5t7 11.5t4 7l144 236q10 16 26 16zM928 516l-295 801l-287 -801h582zM309 422l-145 -406q-7 -16 -23 -16h-65q-15 0 -15 14q0 6 15 43l493 1350q10 27 29 27h74q15 0 26 -25 l514 -1374q7 -17 7 -21q0 -14 -15 -14h-65q-19 0 -25 16l-149 406h-656z" />
<glyph unicode="&#xc2;" horiz-adv-x="1280" d="M494 1548h-70q-14 0 -14 15q0 4 3 9.5t7 11.5t4 7l147 236q10 16 27 16h86q17 0 27 -16l147 -236q0 -1 4 -7t7 -11.5t3 -9.5q0 -15 -14 -15h-70q-13 0 -24 17l-123 184l-123 -184q-11 -17 -24 -17zM928 516l-295 801l-287 -801h582zM309 422l-145 -406q-7 -16 -23 -16 h-65q-15 0 -15 14q0 6 15 43l493 1350q10 27 29 27h74q15 0 26 -25l514 -1374q7 -17 7 -21q0 -14 -15 -14h-65q-19 0 -25 16l-149 406h-656z" />
<glyph unicode="&#xc3;" horiz-adv-x="1280" d="M442 1581h-45q-22 0 -22 23q0 83 42.5 129.5t106.5 46.5q38 0 74.5 -16.5t60 -36t50.5 -36t49 -16.5q59 0 59 84q0 11 6.5 18t16.5 7h43q10 0 17 -7t7 -18q0 -174 -149 -174q-39 0 -75.5 16t-58.5 34.5t-49 34.5t-51 16q-57 0 -57 -82q0 -10 -7 -16.5t-18 -6.5zM928 516 l-295 801l-287 -801h582zM309 422l-145 -406q-7 -16 -23 -16h-65q-15 0 -15 14q0 6 15 43l493 1350q10 27 29 27h74q15 0 26 -25l514 -1374q7 -17 7 -21q0 -14 -15 -14h-65q-19 0 -25 16l-149 406h-656z" />
<glyph unicode="&#xc4;" horiz-adv-x="1280" d="M725 1702q0 35 21.5 57.5t56.5 22.5t57.5 -22.5t22.5 -57.5t-22.5 -57.5t-57.5 -22.5t-56.5 22.5t-21.5 57.5zM397 1702q0 35 21.5 57.5t56.5 22.5t57.5 -22.5t22.5 -57.5t-22.5 -57.5t-57.5 -22.5t-56.5 22.5t-21.5 57.5zM928 516l-295 801l-287 -801h582zM309 422 l-145 -406q-7 -16 -23 -16h-65q-15 0 -15 14q0 6 15 43l493 1350q10 27 29 27h74q15 0 26 -25l514 -1374q7 -17 7 -21q0 -14 -15 -14h-65q-19 0 -25 16l-149 406h-656z" />
<glyph unicode="&#xc5;" horiz-adv-x="1280" d="M426 1714q0 88 61.5 148.5t151.5 60.5q91 0 153 -60.5t62 -148.5t-62 -147.5t-153 -59.5t-152 59.5t-61 147.5zM520 1714q0 -54 34 -88.5t85 -34.5t86 34.5t35 88.5q0 53 -36.5 89t-84.5 36t-83.5 -36t-35.5 -89zM928 516l-295 801l-287 -801h582zM309 422l-145 -406 q-7 -16 -23 -16h-65q-15 0 -15 14q0 6 15 43l493 1350q10 27 29 27h74q15 0 26 -25l514 -1374q7 -17 7 -21q0 -14 -15 -14h-65q-19 0 -25 16l-149 406h-656z" />
<glyph unicode="&#xc6;" horiz-adv-x="1769" d="M664 1341l-336 -825h565v825h-229zM125 16q-7 -16 -23 -16h-67q-15 0 -15 14q0 6 15 43l555 1350q10 27 28 27h1024q10 0 17.5 -7t7.5 -18v-47q0 -10 -7 -16.5t-18 -6.5h-649v-567h506q11 0 18 -7t7 -17v-48q0 -22 -25 -22h-506v-584h649q11 0 18 -7t7 -17v-47 q0 -10 -7 -16.5t-18 -6.5h-727q-22 0 -22 23v399h-604z" />
<glyph unicode="&#xc7;" horiz-adv-x="1290" d="M684 -420q-91 0 -143 58q-14 16 -2 32l30 35q12 15 33 -6q33 -33 84 -33q9 0 19.5 3t24 10.5t22 24t8.5 40.5v10q0 34 -21.5 50t-50.5 16q-30 0 -63 -23q-17 -13 -41 -6l-25 10q-14 6 -15.5 14t7.5 33l49 134q-199 21 -328 167.5t-129 372.5v389q0 164 68 288.5 t183 189.5t259 65q207 0 341 -125.5t163 -320.5q3 -25 -22 -25h-64q-13 0 -16 23q-24 152 -132 253t-270 101q-175 0 -291 -121.5t-116 -327.5v-389q0 -205 117.5 -326.5t291.5 -121.5q164 0 273 105t131 280q2 12 14 12h70q14 0 14 -16q-9 -189 -139.5 -325t-325.5 -148 l-28 -82q20 4 34 4q24 0 49.5 -7.5t51 -24t41.5 -47t16 -71.5v-10q0 -28 -8 -54t-26 -52t-53.5 -42t-84.5 -16z" />
<glyph unicode="&#xc8;" horiz-adv-x="1173" d="M367 1843h77q17 0 27 -16l143 -236q0 -1 4.5 -7t7.5 -11.5t3 -9.5q0 -6 -4.5 -10.5t-10.5 -4.5h-65q-14 0 -25 17l-164 245q-8 12 -8 19q0 14 15 14zM1071 1409v-47q0 -23 -24 -23h-752v-567h608q11 0 18 -7t7 -17v-48q0 -22 -25 -22h-608v-584h752q11 0 17.5 -7t6.5 -17 v-47q0 -23 -24 -23h-830q-22 0 -22 23v1386q0 25 22 25h830q10 0 17 -7t7 -18z" />
<glyph unicode="&#xc9;" horiz-adv-x="1173" d="M729 1843h78q14 0 14 -14q0 -7 -8 -19l-164 -245q-11 -17 -24 -17h-66q-14 0 -14 15q0 4 3 9.5t7 11.5t4 7l143 236q10 16 27 16zM1071 1409v-47q0 -23 -24 -23h-752v-567h608q11 0 18 -7t7 -17v-48q0 -22 -25 -22h-608v-584h752q11 0 17.5 -7t6.5 -17v-47q0 -23 -24 -23 h-830q-22 0 -22 23v1386q0 25 22 25h830q10 0 17 -7t7 -18z" />
<glyph unicode="&#xca;" horiz-adv-x="1173" d="M440 1548h-69q-6 0 -10.5 4.5t-4.5 10.5q0 4 3 9.5t7.5 11.5t4.5 7l147 236q10 16 27 16h86q16 0 26 -16l148 -236q0 -1 4 -7t7 -11.5t3 -9.5q0 -15 -14 -15h-70q-13 0 -24 17l-123 184l-123 -184q-11 -17 -25 -17zM1071 1409v-47q0 -23 -24 -23h-752v-567h608 q11 0 18 -7t7 -17v-48q0 -22 -25 -22h-608v-584h752q11 0 17.5 -7t6.5 -17v-47q0 -23 -24 -23h-830q-22 0 -22 23v1386q0 25 22 25h830q10 0 17 -7t7 -18z" />
<glyph unicode="&#xcb;" horiz-adv-x="1173" d="M672 1702q0 35 21.5 57.5t56.5 22.5t57 -22.5t22 -57.5t-22 -57.5t-57 -22.5t-56.5 22.5t-21.5 57.5zM344 1702q0 35 21.5 57.5t56.5 22.5t57.5 -22.5t22.5 -57.5t-22.5 -57.5t-57.5 -22.5t-56.5 22.5t-21.5 57.5zM1071 1409v-47q0 -23 -24 -23h-752v-567h608q11 0 18 -7 t7 -17v-48q0 -22 -25 -22h-608v-584h752q11 0 17.5 -7t6.5 -17v-47q0 -23 -24 -23h-830q-22 0 -22 23v1386q0 25 22 25h830q10 0 17 -7t7 -18z" />
<glyph unicode="&#xcc;" horiz-adv-x="489" d="M25 1843h77q17 0 27 -16l143 -236q0 -1 4.5 -7t7.5 -11.5t3 -9.5q0 -6 -4.5 -10.5t-10.5 -4.5h-65q-14 0 -25 17l-164 245q-8 12 -8 19q0 14 15 14zM270 0h-53q-22 0 -22 23v1386q0 25 22 25h53q10 0 17.5 -7t7.5 -18v-1386q0 -10 -7 -16.5t-18 -6.5z" />
<glyph unicode="&#xcd;" horiz-adv-x="489" d="M387 1843h78q14 0 14 -14q0 -7 -8 -19l-164 -245q-11 -17 -24 -17h-66q-14 0 -14 15q0 4 3 9.5t7 11.5t4 7l143 236q10 16 27 16zM270 0h-53q-22 0 -22 23v1386q0 25 22 25h53q10 0 17.5 -7t7.5 -18v-1386q0 -10 -7 -16.5t-18 -6.5z" />
<glyph unicode="&#xce;" horiz-adv-x="489" d="M98 1548h-69q-6 0 -10.5 4.5t-4.5 10.5q0 4 3 9.5t7.5 11.5t4.5 7l147 236q10 16 27 16h86q16 0 26 -16l148 -236q0 -1 4 -7t7 -11.5t3 -9.5q0 -15 -14 -15h-70q-13 0 -24 17l-123 184l-123 -184q-11 -17 -25 -17zM270 0h-53q-22 0 -22 23v1386q0 25 22 25h53 q10 0 17.5 -7t7.5 -18v-1386q0 -10 -7 -16.5t-18 -6.5z" />
<glyph unicode="&#xcf;" horiz-adv-x="489" d="M330 1702q0 35 21.5 57.5t56.5 22.5t57 -22.5t22 -57.5t-22 -57.5t-57 -22.5t-56.5 22.5t-21.5 57.5zM2 1702q0 35 21.5 57.5t56.5 22.5t57.5 -22.5t22.5 -57.5t-22.5 -57.5t-57.5 -22.5t-56.5 22.5t-21.5 57.5zM270 0h-53q-22 0 -22 23v1386q0 25 22 25h53q10 0 17.5 -7 t7.5 -18v-1386q0 -10 -7 -16.5t-18 -6.5z" />
<glyph unicode="&#xd0;" horiz-adv-x="1318" d="M668 0h-451q-22 0 -22 23v649h-172q-23 0 -23 22v47q0 11 6.5 18t16.5 7h172v643q0 25 22 25h449q107 0 200 -38t162 -107t108.5 -171t39.5 -225v-350q0 -245 -144.5 -394t-363.5 -149zM295 94h373q83 0 156.5 31t129 87.5t87.5 142t32 188.5v348q0 206 -117 327 t-290 121h-371v-573h272q11 0 18 -7t7 -18v-47q0 -22 -25 -22h-272v-578z" />
<glyph unicode="&#xd1;" horiz-adv-x="1384" d="M496 1581h-45q-23 0 -23 23q0 83 43 129.5t107 46.5q38 0 74.5 -16.5t59.5 -36t50 -36t49 -16.5q59 0 59 84q0 11 6.5 18t16.5 7h43q10 0 17.5 -7t7.5 -18q0 -174 -150 -174q-50 0 -93 25.5t-77 50.5t-63 25q-58 0 -58 -82q0 -23 -24 -23zM295 23q0 -10 -7 -16.5 t-18 -6.5h-53q-22 0 -22 23v1386q0 25 22 25h55q15 0 26 -18q1 -2 1 -3l791 -1208v1204q0 25 22 25h53q11 0 18 -7t7 -18v-1386q0 -10 -7 -16.5t-18 -6.5h-32q-23 0 -39 27l-799 1220v-1224z" />
<glyph unicode="&#xd2;" d="M434 1843h78q17 0 27 -16l143 -236q0 -1 4 -7t7 -11.5t3 -9.5q0 -15 -14 -15h-66q-13 0 -24 17l-164 245q-8 12 -8 19q0 14 14 14zM143 522v387q0 123 39.5 226t108 172.5t162 108t200.5 38.5q219 0 364.5 -150t145.5 -395v-387q0 -244 -145 -393t-363 -149 q-106 0 -200 38.5t-163 107.5t-109 171.5t-40 224.5zM246 907v-385q0 -205 117.5 -326.5t291.5 -121.5q172 0 289 122t117 326v385q0 206 -117.5 329.5t-290.5 123.5q-174 0 -290.5 -123t-116.5 -330z" />
<glyph unicode="&#xd3;" d="M797 1843h77q15 0 15 -14q0 -7 -8 -19l-164 -245q-11 -17 -25 -17h-65q-6 0 -10.5 4.5t-4.5 10.5q0 4 3 9.5t7.5 11.5t4.5 7l143 236q10 16 27 16zM143 522v387q0 123 39.5 226t108 172.5t162 108t200.5 38.5q219 0 364.5 -150t145.5 -395v-387q0 -244 -145 -393 t-363 -149q-106 0 -200 38.5t-163 107.5t-109 171.5t-40 224.5zM246 907v-385q0 -205 117.5 -326.5t291.5 -121.5q172 0 289 122t117 326v385q0 206 -117.5 329.5t-290.5 123.5q-174 0 -290.5 -123t-116.5 -330z" />
<glyph unicode="&#xd4;" d="M506 1548h-70q-14 0 -14 15q0 4 3 9.5t7 11.5t4 7l148 236q10 16 26 16h86q17 0 27 -16l147 -236q0 -1 4.5 -7t7.5 -11.5t3 -9.5q0 -6 -4.5 -10.5t-10.5 -4.5h-69q-14 0 -25 17l-123 184l-123 -184q-11 -17 -24 -17zM143 522v387q0 123 39.5 226t108 172.5t162 108 t200.5 38.5q219 0 364.5 -150t145.5 -395v-387q0 -244 -145 -393t-363 -149q-106 0 -200 38.5t-163 107.5t-109 171.5t-40 224.5zM246 907v-385q0 -205 117.5 -326.5t291.5 -121.5q172 0 289 122t117 326v385q0 206 -117.5 329.5t-290.5 123.5q-174 0 -290.5 -123 t-116.5 -330z" />
<glyph unicode="&#xd5;" d="M457 1581h-45q-23 0 -23 23q0 83 43 129.5t107 46.5q38 0 74.5 -16.5t59.5 -36t50 -36t49 -16.5q59 0 59 84q0 11 6.5 18t16.5 7h43q11 0 18 -7t7 -18q0 -174 -150 -174q-50 0 -93 25.5t-77 50.5t-63 25q-58 0 -58 -82q0 -23 -24 -23zM143 522v387q0 123 39.5 226 t108 172.5t162 108t200.5 38.5q219 0 364.5 -150t145.5 -395v-387q0 -244 -145 -393t-363 -149q-106 0 -200 38.5t-163 107.5t-109 171.5t-40 224.5zM246 907v-385q0 -205 117.5 -326.5t291.5 -121.5q172 0 289 122t117 326v385q0 206 -117.5 329.5t-290.5 123.5 q-174 0 -290.5 -123t-116.5 -330z" />
<glyph unicode="&#xd6;" d="M739 1702q0 35 21.5 57.5t56.5 22.5t57.5 -22.5t22.5 -57.5t-22.5 -57.5t-57.5 -22.5t-56.5 22.5t-21.5 57.5zM412 1702q0 36 21 58t56 22t57.5 -22.5t22.5 -57.5t-22.5 -57.5t-57.5 -22.5t-56 22t-21 58zM143 522v387q0 123 39.5 226t108 172.5t162 108t200.5 38.5 q219 0 364.5 -150t145.5 -395v-387q0 -244 -145 -393t-363 -149q-106 0 -200 38.5t-163 107.5t-109 171.5t-40 224.5zM246 907v-385q0 -205 117.5 -326.5t291.5 -121.5q172 0 289 122t117 326v385q0 206 -117.5 329.5t-290.5 123.5q-174 0 -290.5 -123t-116.5 -330z" />
<glyph unicode="&#xd7;" horiz-adv-x="1290" d="M256 295l-33 33q-15 15 0 30l359 359l-351 350q-17 17 0 33l33 33q18 17 33 2l350 -351l354 353q17 17 33 2l33 -33q17 -18 0 -35l-354 -352l348 -348q17 -17 0 -35l-33 -33q-16 -16 -35 0l-346 348l-358 -356q-17 -17 -33 0z" />
<glyph unicode="&#xd8;" d="M655 -20q-198 0 -336 120l-49 -75q-15 -25 -39 -25h-57q-13 0 -17.5 9.5t3.5 21.5l92 143q-109 144 -109 348v387q0 123 39.5 226t108 172.5t162 108t200.5 38.5q197 0 338 -125l51 80q15 25 39 25h58q13 0 17.5 -9.5t-3.5 -21.5l-94 -148q104 -142 104 -346v-387 q0 -244 -145 -393t-363 -149zM246 522q0 -145 65 -256l625 977q-114 117 -283 117q-174 0 -290.5 -123t-116.5 -330v-385zM655 74q172 0 289 122t117 326v385q0 143 -62 254l-626 -975q112 -112 282 -112z" />
<glyph unicode="&#xd9;" horiz-adv-x="1327" d="M444 1843h78q17 0 27 -16l143 -236q0 -1 4.5 -7t7.5 -11.5t3 -9.5q0 -6 -4.5 -10.5t-10.5 -4.5h-65q-14 0 -25 17l-164 245q-8 12 -8 19q0 14 14 14zM1075 1434h53q10 0 17.5 -7t7.5 -18v-887q0 -246 -135.5 -394t-351.5 -148q-217 0 -354.5 148t-137.5 394v887 q0 11 6.5 18t16.5 7h53q10 0 17 -7t7 -18v-887q0 -207 109 -327.5t283 -120.5q171 0 279 120.5t108 327.5v887q0 25 22 25z" />
<glyph unicode="&#xda;" horiz-adv-x="1327" d="M807 1843h78q14 0 14 -14q0 -7 -8 -19l-164 -245q-11 -17 -25 -17h-65q-14 0 -14 15q0 4 3 9.5t7 11.5t4 7l143 236q10 16 27 16zM1075 1434h53q10 0 17.5 -7t7.5 -18v-887q0 -246 -135.5 -394t-351.5 -148q-217 0 -354.5 148t-137.5 394v887q0 11 6.5 18t16.5 7h53 q10 0 17 -7t7 -18v-887q0 -207 109 -327.5t283 -120.5q171 0 279 120.5t108 327.5v887q0 25 22 25z" />
<glyph unicode="&#xdb;" horiz-adv-x="1327" d="M516 1548h-70q-14 0 -14 15q0 4 3 9.5t7 11.5t4 7l148 236q10 16 27 16h86q16 0 26 -16l148 -236q0 -1 4 -7t7 -11.5t3 -9.5q0 -15 -14 -15h-70q-14 0 -25 17l-122 184l-123 -184q-11 -17 -25 -17zM1075 1434h53q10 0 17.5 -7t7.5 -18v-887q0 -246 -135.5 -394 t-351.5 -148q-217 0 -354.5 148t-137.5 394v887q0 11 6.5 18t16.5 7h53q10 0 17 -7t7 -18v-887q0 -207 109 -327.5t283 -120.5q171 0 279 120.5t108 327.5v887q0 25 22 25z" />
<glyph unicode="&#xdc;" horiz-adv-x="1327" d="M750 1702q0 36 21 58t56 22t57.5 -22.5t22.5 -57.5t-22.5 -57.5t-57.5 -22.5t-56 22t-21 58zM422 1702q0 35 21.5 57.5t56.5 22.5t57.5 -22.5t22.5 -57.5t-22.5 -57.5t-57.5 -22.5t-56.5 22.5t-21.5 57.5zM1075 1434h53q10 0 17.5 -7t7.5 -18v-887q0 -246 -135.5 -394 t-351.5 -148q-217 0 -354.5 148t-137.5 394v887q0 11 6.5 18t16.5 7h53q10 0 17 -7t7 -18v-887q0 -207 109 -327.5t283 -120.5q171 0 279 120.5t108 327.5v887q0 25 22 25z" />
<glyph unicode="&#xdd;" horiz-adv-x="1200" d="M743 1843h78q15 0 15 -14q0 -5 -9 -19l-163 -245q-11 -17 -25 -17h-66q-14 0 -14 15q0 4 3 9.5t7 11.5t4 7l144 236q10 16 26 16zM629 0h-54q-22 0 -22 23v608l-500 764q-12 18 -12 24q0 15 14 15h76q15 0 25 -17l450 -690l441 690q11 17 22 17h76q14 0 14 -15 q0 -6 -8 -18l-498 -768v-610q0 -23 -24 -23z" />
<glyph unicode="&#xde;" horiz-adv-x="1216" d="M217 0q-22 0 -22 23v1388q0 23 22 23h53q11 0 18 -6.5t7 -16.5v-256h387q205 0 323.5 -103.5t118.5 -299.5v-33q0 -198 -119.5 -311t-322.5 -113h-387v-272q0 -10 -7 -16.5t-18 -6.5h-53zM682 1061h-387v-672h387q68 0 128 18.5t108.5 56t77 101t28.5 146.5v49 q0 67 -19 119.5t-50.5 86.5t-76.5 55.5t-93 30.5t-103 9z" />
<glyph unicode="&#xdf;" horiz-adv-x="1157" d="M573 803h58q221 0 221 248q0 136 -80.5 212t-202.5 76q-123 0 -202.5 -85.5t-79.5 -243.5v-987q0 -10 -7 -16.5t-18 -6.5h-53q-23 0 -23 23v907h-123q-22 0 -22 22v47q0 25 22 25h123q2 116 43.5 206.5t129 147t210.5 56.5q94 0 168.5 -30.5t120.5 -83.5t70 -121.5 t24 -147.5q0 -105 -35.5 -182.5t-107.5 -106.5q97 -41 161 -132t64 -231q0 -117 -30.5 -199.5t-88.5 -130t-133 -68.5t-174 -21q-97 0 -166 20q-12 4 -17.5 10.5t-6 11t-0.5 13.5v49q0 14 14 14q5 0 64 -12t127 -12q77 0 135 20t90.5 50.5t52.5 75.5t26.5 87t6.5 92 q0 140 -78 225t-225 85h-58q-22 0 -22 22v47q0 25 22 25z" />
<glyph unicode="&#xe0;" horiz-adv-x="1034" d="M297 1434h78q16 0 26 -17l144 -235q14 -28 14 -29q0 -14 -14 -14h-66q-13 0 -24 16l-164 246q-8 12 -8 18q0 15 14 15zM770 471h-328q-142 0 -195.5 -48.5t-53.5 -148.5q0 -93 64 -145.5t165 -52.5h47q68 0 122 20.5t87 53t54.5 75.5t29.5 83.5t8 82.5v80zM870 649v-626 q0 -23 -24 -23h-53q-23 0 -23 23v122q-34 -79 -117.5 -122t-183.5 -43h-47q-151 0 -240.5 79t-89.5 215q0 150 87 221.5t261 71.5h330v84q0 37 -1 58.5t-6 57t-14.5 57t-29 48t-47 41t-70.5 25t-98 10.5q-132 0 -186.5 -43.5t-69.5 -130.5q-4 -22 -25 -22h-53q-23 0 -23 22 v4q31 266 357 266q73 0 131.5 -14t96 -35t65 -56t41 -66t21.5 -75.5t9.5 -75t1.5 -73.5z" />
<glyph unicode="&#xe1;" horiz-adv-x="1034" d="M659 1434h78q6 0 10.5 -4.5t4.5 -10.5q0 -5 -9 -18l-163 -246q-11 -16 -25 -16h-66q-14 0 -14 14q0 1 14 29l144 235q10 17 26 17zM770 471h-328q-142 0 -195.5 -48.5t-53.5 -148.5q0 -93 64 -145.5t165 -52.5h47q68 0 122 20.5t87 53t54.5 75.5t29.5 83.5t8 82.5v80z M870 649v-626q0 -23 -24 -23h-53q-23 0 -23 23v122q-34 -79 -117.5 -122t-183.5 -43h-47q-151 0 -240.5 79t-89.5 215q0 150 87 221.5t261 71.5h330v84q0 37 -1 58.5t-6 57t-14.5 57t-29 48t-47 41t-70.5 25t-98 10.5q-132 0 -186.5 -43.5t-69.5 -130.5q-4 -22 -25 -22h-53 q-23 0 -23 22v4q31 266 357 266q73 0 131.5 -14t96 -35t65 -56t41 -66t21.5 -75.5t9.5 -75t1.5 -73.5z" />
<glyph unicode="&#xe2;" horiz-adv-x="1034" d="M371 1139h-70q-14 0 -14 14q0 1 14 29l148 235q10 17 26 17h86q17 0 27 -17l147 -235q0 -1 4.5 -7t7.5 -12t3 -10q0 -14 -15 -14h-69q-14 0 -25 16l-123 184l-123 -184q-11 -16 -24 -16zM770 471h-328q-142 0 -195.5 -48.5t-53.5 -148.5q0 -93 64 -145.5t165 -52.5h47 q68 0 122 20.5t87 53t54.5 75.5t29.5 83.5t8 82.5v80zM870 649v-626q0 -23 -24 -23h-53q-23 0 -23 23v122q-34 -79 -117.5 -122t-183.5 -43h-47q-151 0 -240.5 79t-89.5 215q0 150 87 221.5t261 71.5h330v84q0 37 -1 58.5t-6 57t-14.5 57t-29 48t-47 41t-70.5 25t-98 10.5 q-132 0 -186.5 -43.5t-69.5 -130.5q-4 -22 -25 -22h-53q-23 0 -23 22v4q31 266 357 266q73 0 131.5 -14t96 -35t65 -56t41 -66t21.5 -75.5t9.5 -75t1.5 -73.5z" />
<glyph unicode="&#xe3;" horiz-adv-x="1034" d="M319 1171h-45q-22 0 -22 23q0 83 42.5 129.5t106.5 46.5q38 0 74.5 -16t60 -36t50.5 -36t49 -16q59 0 59 84q0 24 23 24h43q10 0 17 -7t7 -17q0 -174 -149 -174q-50 0 -93 25t-77.5 50t-63.5 25q-57 0 -57 -82q0 -10 -7 -16.5t-18 -6.5zM770 471h-328 q-142 0 -195.5 -48.5t-53.5 -148.5q0 -93 64 -145.5t165 -52.5h47q68 0 122 20.5t87 53t54.5 75.5t29.5 83.5t8 82.5v80zM870 649v-626q0 -23 -24 -23h-53q-23 0 -23 23v122q-34 -79 -117.5 -122t-183.5 -43h-47q-151 0 -240.5 79t-89.5 215q0 150 87 221.5t261 71.5h330v84 q0 37 -1 58.5t-6 57t-14.5 57t-29 48t-47 41t-70.5 25t-98 10.5q-132 0 -186.5 -43.5t-69.5 -130.5q-4 -22 -25 -22h-53q-23 0 -23 22v4q31 266 357 266q73 0 131.5 -14t96 -35t65 -56t41 -66t21.5 -75.5t9.5 -75t1.5 -73.5z" />
<glyph unicode="&#xe4;" horiz-adv-x="1034" d="M602 1292q0 35 21.5 57.5t56.5 22.5t57.5 -22.5t22.5 -57.5t-22.5 -57.5t-57.5 -22.5t-56.5 22.5t-21.5 57.5zM274 1292q0 35 21.5 57.5t56.5 22.5t57.5 -22.5t22.5 -57.5t-22.5 -57.5t-57.5 -22.5t-56.5 22.5t-21.5 57.5zM770 471h-328q-142 0 -195.5 -48.5 t-53.5 -148.5q0 -93 64 -145.5t165 -52.5h47q68 0 122 20.5t87 53t54.5 75.5t29.5 83.5t8 82.5v80zM870 649v-626q0 -23 -24 -23h-53q-23 0 -23 23v122q-34 -79 -117.5 -122t-183.5 -43h-47q-151 0 -240.5 79t-89.5 215q0 150 87 221.5t261 71.5h330v84q0 37 -1 58.5t-6 57 t-14.5 57t-29 48t-47 41t-70.5 25t-98 10.5q-132 0 -186.5 -43.5t-69.5 -130.5q-4 -22 -25 -22h-53q-23 0 -23 22v4q31 266 357 266q73 0 131.5 -14t96 -35t65 -56t41 -66t21.5 -75.5t9.5 -75t1.5 -73.5z" />
<glyph unicode="&#xe5;" horiz-adv-x="1034" d="M303 1305q0 88 61 148t152 60t153 -60t62 -148t-62 -147.5t-153 -59.5t-152 59.5t-61 147.5zM397 1305q0 -55 34.5 -89t84.5 -34q51 0 86 34.5t35 88.5q0 53 -36.5 89t-84.5 36t-83.5 -36t-35.5 -89zM770 471h-328q-142 0 -195.5 -48.5t-53.5 -148.5q0 -93 64 -145.5 t165 -52.5h47q68 0 122 20.5t87 53t54.5 75.5t29.5 83.5t8 82.5v80zM870 649v-626q0 -23 -24 -23h-53q-23 0 -23 23v122q-34 -79 -117.5 -122t-183.5 -43h-47q-151 0 -240.5 79t-89.5 215q0 150 87 221.5t261 71.5h330v84q0 37 -1 58.5t-6 57t-14.5 57t-29 48t-47 41 t-70.5 25t-98 10.5q-132 0 -186.5 -43.5t-69.5 -130.5q-4 -22 -25 -22h-53q-23 0 -23 22v4q31 266 357 266q73 0 131.5 -14t96 -35t65 -56t41 -66t21.5 -75.5t9.5 -75t1.5 -73.5z" />
<glyph unicode="&#xe6;" horiz-adv-x="1671" d="M870 565h578v35q0 164 -80 256t-209 92t-209 -92t-80 -256v-35zM469 76q68 0 122 20.5t87 53t54.5 75.5t29.5 83.5t8 82.5v80h-328q-142 0 -195.5 -48.5t-53.5 -148.5q0 -93 64 -145.5t165 -52.5h47zM1163 -20q-114 0 -205 54.5t-137 160.5q-50 -103 -148.5 -159 t-203.5 -56h-47q-151 0 -240.5 79t-89.5 215q0 150 87 221.5t261 71.5h330v84q0 37 -1 58.5t-6 57t-14.5 57t-29 48t-47 41t-70.5 25t-98 10.5q-132 0 -186.5 -43.5t-69.5 -130.5q-4 -22 -25 -22h-53q-23 0 -23 22v4q31 266 357 266q261 0 336 -186q51 90 133.5 138 t185.5 48q172 0 280.5 -118t108.5 -328v-106q0 -23 -24 -23h-654v-55q0 -158 82 -248t211 -90q206 0 277 215q6 18 20 18h64q14 0 14 -14q0 -6 -6 -27q-21 -80 -64 -139t-96.5 -90t-105.5 -45t-103 -14z" />
<glyph unicode="&#xe7;" horiz-adv-x="1028" d="M520 -420q-91 0 -143 58q-14 16 -2 32l31 35q12 14 32 -6q33 -33 84 -33q9 0 19.5 3t24 10.5t22 24t8.5 40.5v10q0 34 -21.5 50t-50.5 16q-30 0 -63 -23q-17 -13 -41 -6l-25 10q-14 6 -15.5 14t7.5 33l51 140q-143 29 -229 142t-86 294v174q0 210 112 328t289 118 q75 0 138 -22t104 -56t71.5 -79.5t46 -88.5t21.5 -87v-2q0 -15 -14 -15h-62q-17 0 -22 21q-30 116 -98 174.5t-185 58.5q-134 0 -217.5 -93t-83.5 -259v-168q0 -167 84 -259.5t219 -92.5q107 0 176.5 53.5t104.5 179.5q5 19 22 19h62q14 0 14 -15q0 -8 -2 -20 q-7 -38 -22.5 -77.5t-46 -83t-71 -76.5t-102 -54.5t-133.5 -21.5l-28 -80q20 4 35 4q24 0 49.5 -7.5t50.5 -24t41 -47t16 -71.5v-10q0 -28 -8 -54t-26 -52t-53.5 -42t-84.5 -16z" />
<glyph unicode="&#xe8;" horiz-adv-x="1048" d="M305 1434h78q17 0 27 -17l143 -235q14 -28 14 -29q0 -14 -14 -14h-66q-13 0 -24 16l-164 246q-8 12 -8 18q0 15 14 15zM223 469v-55q0 -157 85.5 -247.5t219.5 -90.5q218 0 289 215q6 18 21 18h63q14 0 14 -14q0 -6 -6 -27q-21 -80 -65.5 -139t-100 -90t-109 -45 t-106.5 -14q-179 0 -292 117.5t-113 326.5v174q0 210 112 328t289 118t289.5 -118.5t112.5 -327.5v-106q0 -10 -7 -16.5t-18 -6.5h-678zM223 565h602v35q0 164 -83 256t-218 92q-134 0 -217.5 -92.5t-83.5 -255.5v-35z" />
<glyph unicode="&#xe9;" horiz-adv-x="1048" d="M668 1434h77q6 0 10.5 -4.5t4.5 -10.5t-8 -18l-164 -246q-11 -16 -25 -16h-65q-15 0 -15 14q0 4 3 10t7.5 12t4.5 7l143 235q10 17 27 17zM223 469v-55q0 -157 85.5 -247.5t219.5 -90.5q218 0 289 215q6 18 21 18h63q14 0 14 -14q0 -6 -6 -27q-21 -80 -65.5 -139 t-100 -90t-109 -45t-106.5 -14q-179 0 -292 117.5t-113 326.5v174q0 210 112 328t289 118t289.5 -118.5t112.5 -327.5v-106q0 -10 -7 -16.5t-18 -6.5h-678zM223 565h602v35q0 164 -83 256t-218 92q-134 0 -217.5 -92.5t-83.5 -255.5v-35z" />
<glyph unicode="&#xea;" horiz-adv-x="1048" d="M377 1139h-70q-14 0 -14 14q0 1 14 29l148 235q10 17 26 17h86q17 0 27 -17l147 -235q0 -1 4.5 -7t7.5 -12t3 -10q0 -14 -15 -14h-69q-14 0 -25 16l-123 184l-123 -184q-11 -16 -24 -16zM223 469v-55q0 -157 85.5 -247.5t219.5 -90.5q218 0 289 215q6 18 21 18h63 q14 0 14 -14q0 -6 -6 -27q-21 -80 -65.5 -139t-100 -90t-109 -45t-106.5 -14q-179 0 -292 117.5t-113 326.5v174q0 210 112 328t289 118t289.5 -118.5t112.5 -327.5v-106q0 -10 -7 -16.5t-18 -6.5h-678zM223 565h602v35q0 164 -83 256t-218 92q-134 0 -217.5 -92.5 t-83.5 -255.5v-35z" />
<glyph unicode="&#xeb;" horiz-adv-x="1048" d="M610 1292q0 35 21.5 57.5t56.5 22.5t57.5 -22.5t22.5 -57.5t-22.5 -57.5t-57.5 -22.5t-56.5 22.5t-21.5 57.5zM283 1292q0 36 21 58t56 22t57.5 -22.5t22.5 -57.5t-22.5 -57.5t-57.5 -22.5t-56 22t-21 58zM223 469v-55q0 -157 85.5 -247.5t219.5 -90.5q218 0 289 215 q6 18 21 18h63q14 0 14 -14q0 -6 -6 -27q-21 -80 -65.5 -139t-100 -90t-109 -45t-106.5 -14q-179 0 -292 117.5t-113 326.5v174q0 210 112 328t289 118t289.5 -118.5t112.5 -327.5v-106q0 -10 -7 -16.5t-18 -6.5h-678zM223 565h602v35q0 164 -83 256t-218 92 q-134 0 -217.5 -92.5t-83.5 -255.5v-35z" />
<glyph unicode="&#xec;" horiz-adv-x="468" d="M14 1434h78q17 0 27 -17l143 -235q14 -28 14 -29q0 -14 -14 -14h-65q-14 0 -25 16l-164 246q-8 12 -8 18q0 15 14 15zM260 0h-53q-23 0 -23 23v976q0 11 6.5 18t16.5 7h53q10 0 17.5 -7t7.5 -18v-976q0 -10 -7 -16.5t-18 -6.5z" />
<glyph unicode="&#xed;" horiz-adv-x="468" d="M377 1434h78q14 0 14 -15q0 -6 -8 -18l-164 -246q-11 -16 -25 -16h-65q-14 0 -14 14q0 1 14 29l143 235q10 17 27 17zM260 0h-53q-23 0 -23 23v976q0 11 6.5 18t16.5 7h53q10 0 17.5 -7t7.5 -18v-976q0 -10 -7 -16.5t-18 -6.5z" />
<glyph unicode="&#xee;" horiz-adv-x="468" d="M88 1139h-70q-14 0 -14 14q0 1 14 29l148 235q10 17 27 17h86q16 0 26 -17l148 -235q14 -28 14 -29q0 -14 -14 -14h-70q-14 0 -25 16l-122 184l-123 -184q-11 -16 -25 -16zM260 0h-53q-23 0 -23 23v976q0 11 6.5 18t16.5 7h53q10 0 17.5 -7t7.5 -18v-976q0 -10 -7 -16.5 t-18 -6.5z" />
<glyph unicode="&#xef;" horiz-adv-x="468" d="M319 1292q0 35 21.5 57.5t56.5 22.5t57.5 -22.5t22.5 -57.5t-22.5 -57.5t-57.5 -22.5t-56.5 22.5t-21.5 57.5zM-8 1292q0 35 21.5 57.5t56.5 22.5t57.5 -22.5t22.5 -57.5t-22.5 -57.5t-57.5 -22.5t-56.5 22.5t-21.5 57.5zM260 0h-53q-23 0 -23 23v976q0 11 6.5 18t16.5 7 h53q10 0 17.5 -7t7.5 -18v-976q0 -10 -7 -16.5t-18 -6.5z" />
<glyph unicode="&#xf0;" horiz-adv-x="1044" d="M522 -20q-177 0 -288 117t-111 327v88q0 210 111.5 328t289.5 118q83 0 162.5 -34t134.5 -99v82q0 187 -82 297l-145 -127q-20 -17 -37 0l-25 27q-18 21 7 41l137 121q-98 73 -273 73q-16 0 -20 5.5t-4 17.5v57q0 15 14 15h19q217 0 342 -101l110 97q22 19 41 0l25 -27 q16 -20 -10 -43l-103 -88q105 -135 105 -363v-485q0 -209 -112 -326.5t-288 -117.5zM223 510v-82q0 -167 82.5 -259.5t216.5 -92.5q135 0 217 92t82 260v82q0 170 -81.5 261t-217.5 91q-134 0 -216.5 -93t-82.5 -259z" />
<glyph unicode="&#xf1;" horiz-adv-x="1122" d="M365 1171h-46q-22 0 -22 23q0 83 42.5 129.5t106.5 46.5q38 0 74.5 -16t60 -36t50.5 -36t49 -16q59 0 59 84q0 24 23 24h43q11 0 17.5 -7t6.5 -17q0 -174 -149 -174q-50 0 -93 25t-77.5 50t-63.5 25q-57 0 -57 -82q0 -23 -24 -23zM250 0h-53q-23 0 -23 23v976 q0 11 6.5 18t16.5 7h53q10 0 17 -7t7 -18v-125q87 170 291 170q186 0 289.5 -121.5t103.5 -324.5v-575q0 -23 -24 -23h-53q-23 0 -23 23v573q0 167 -79.5 259.5t-213.5 92.5q-133 0 -212 -92.5t-79 -259.5v-573q0 -23 -24 -23z" />
<glyph unicode="&#xf2;" horiz-adv-x="1044" d="M303 1434h78q17 0 27 -17l143 -235q14 -28 14 -29q0 -14 -14 -14h-66q-13 0 -24 16l-164 246q-8 12 -8 18q0 15 14 15zM123 424v174q0 210 111 328t288 118q176 0 288 -118.5t112 -327.5v-174q0 -209 -112 -326.5t-288 -117.5q-177 0 -288 117t-111 327zM223 596v-168 q0 -167 82.5 -259.5t216.5 -92.5q135 0 217 92t82 260v168q0 167 -82 259.5t-217 92.5q-134 0 -216.5 -93t-82.5 -259z" />
<glyph unicode="&#xf3;" horiz-adv-x="1044" d="M666 1434h77q6 0 10.5 -4.5t4.5 -10.5t-8 -18l-164 -246q-11 -16 -25 -16h-65q-15 0 -15 14q0 4 3 10t7.5 12t4.5 7l143 235q10 17 27 17zM123 424v174q0 210 111 328t288 118q176 0 288 -118.5t112 -327.5v-174q0 -209 -112 -326.5t-288 -117.5q-177 0 -288 117 t-111 327zM223 596v-168q0 -167 82.5 -259.5t216.5 -92.5q135 0 217 92t82 260v168q0 167 -82 259.5t-217 92.5q-134 0 -216.5 -93t-82.5 -259z" />
<glyph unicode="&#xf4;" horiz-adv-x="1044" d="M375 1139h-70q-14 0 -14 14q0 1 14 29l148 235q10 17 26 17h86q17 0 27 -17l147 -235q0 -1 4.5 -7t7.5 -12t3 -10q0 -14 -15 -14h-69q-14 0 -25 16l-123 184l-123 -184q-11 -16 -24 -16zM123 424v174q0 210 111 328t288 118q176 0 288 -118.5t112 -327.5v-174 q0 -209 -112 -326.5t-288 -117.5q-177 0 -288 117t-111 327zM223 596v-168q0 -167 82.5 -259.5t216.5 -92.5q135 0 217 92t82 260v168q0 167 -82 259.5t-217 92.5q-134 0 -216.5 -93t-82.5 -259z" />
<glyph unicode="&#xf5;" horiz-adv-x="1044" d="M326 1171h-45q-23 0 -23 23q0 83 43 129.5t107 46.5q38 0 74.5 -16t59.5 -36t50 -36t49 -16q59 0 59 84q0 24 23 24h43q11 0 18 -7t7 -17q0 -174 -150 -174q-39 0 -75 15.5t-58.5 34.5t-49 34.5t-50.5 15.5q-58 0 -58 -82q0 -23 -24 -23zM123 424v174q0 210 111 328 t288 118q176 0 288 -118.5t112 -327.5v-174q0 -209 -112 -326.5t-288 -117.5q-177 0 -288 117t-111 327zM223 596v-168q0 -167 82.5 -259.5t216.5 -92.5q135 0 217 92t82 260v168q0 167 -82 259.5t-217 92.5q-134 0 -216.5 -93t-82.5 -259z" />
<glyph unicode="&#xf6;" horiz-adv-x="1044" d="M608 1292q0 35 21.5 57.5t56.5 22.5t57.5 -22.5t22.5 -57.5t-22.5 -57.5t-57.5 -22.5t-56.5 22.5t-21.5 57.5zM281 1292q0 36 21 58t56 22t57.5 -22.5t22.5 -57.5t-22.5 -57.5t-57.5 -22.5t-56 22t-21 58zM123 424v174q0 210 111 328t288 118q176 0 288 -118.5 t112 -327.5v-174q0 -209 -112 -326.5t-288 -117.5q-177 0 -288 117t-111 327zM223 596v-168q0 -167 82.5 -259.5t216.5 -92.5q135 0 217 92t82 260v168q0 167 -82 259.5t-217 92.5q-134 0 -216.5 -93t-82.5 -259z" />
<glyph unicode="&#xf7;" horiz-adv-x="1290" d="M553 1167q0 43 26.5 70t69.5 27t69.5 -27t26.5 -70t-26.5 -68.5t-69.5 -25.5t-69.5 25.5t-26.5 68.5zM166 766h956q10 0 17.5 -7t7.5 -18v-47q0 -22 -25 -22h-956q-23 0 -23 22v47q0 11 6.5 18t16.5 7zM553 268q0 43 26.5 70t69.5 27t69.5 -27t26.5 -70t-26.5 -68.5 t-69.5 -25.5t-69.5 25.5t-26.5 68.5z" />
<glyph unicode="&#xf8;" horiz-adv-x="1044" d="M522 -20q-151 0 -254 83l-26 -38q-11 -15 -18.5 -20t-20.5 -5h-58q-13 0 -17.5 9.5t3.5 21.5l72 104q-80 116 -80 289v174q0 210 111 328t288 118q148 0 246 -79l25 34q11 15 18 20t20 5h58q13 0 17.5 -9.5t-3.5 -21.5l-67 -98q86 -116 86 -297v-174q0 -209 -112 -326.5 t-288 -117.5zM223 428q0 -122 43 -201l447 656q-77 65 -191 65q-134 0 -216.5 -93t-82.5 -259v-168zM522 76q135 0 217 92t82 260v168q0 126 -47 209l-448 -658q77 -71 196 -71z" />
<glyph unicode="&#xf9;" horiz-adv-x="1091" d="M326 1434h77q17 0 27 -17l143 -235q0 -1 4.5 -7t7.5 -12t3 -10q0 -14 -15 -14h-65q-14 0 -25 16l-164 246q-8 12 -8 18t4.5 10.5t10.5 4.5zM840 1024h53q11 0 18 -7t7 -18v-976q0 -10 -7 -16.5t-18 -6.5h-53q-23 0 -23 23v112q-35 -65 -106.5 -110t-184.5 -45 q-173 0 -267.5 115t-94.5 329v575q0 25 22 25h54q10 0 17 -7t7 -18v-571q0 -352 262 -352q133 0 212 92t79 260v571q0 11 6.5 18t16.5 7z" />
<glyph unicode="&#xfa;" horiz-adv-x="1091" d="M688 1434h78q14 0 14 -15q0 -6 -8 -18l-164 -246q-11 -16 -24 -16h-66q-14 0 -14 14q0 1 14 29l144 235q10 17 26 17zM840 1024h53q11 0 18 -7t7 -18v-976q0 -10 -7 -16.5t-18 -6.5h-53q-23 0 -23 23v112q-35 -65 -106.5 -110t-184.5 -45q-173 0 -267.5 115t-94.5 329 v575q0 25 22 25h54q10 0 17 -7t7 -18v-571q0 -352 262 -352q133 0 212 92t79 260v571q0 11 6.5 18t16.5 7z" />
<glyph unicode="&#xfb;" horiz-adv-x="1091" d="M399 1139h-69q-15 0 -15 14q0 4 3 10t7.5 12t4.5 7l147 235q10 17 27 17h86q16 0 26 -17l148 -235q14 -28 14 -29q0 -14 -14 -14h-70q-13 0 -24 16l-123 184l-123 -184q-11 -16 -25 -16zM840 1024h53q11 0 18 -7t7 -18v-976q0 -10 -7 -16.5t-18 -6.5h-53q-23 0 -23 23 v112q-35 -65 -106.5 -110t-184.5 -45q-173 0 -267.5 115t-94.5 329v575q0 25 22 25h54q10 0 17 -7t7 -18v-571q0 -352 262 -352q133 0 212 92t79 260v571q0 11 6.5 18t16.5 7z" />
<glyph unicode="&#xfc;" horiz-adv-x="1091" d="M631 1292q0 35 21.5 57.5t56.5 22.5t57 -22.5t22 -57.5t-22 -57.5t-57 -22.5t-56.5 22.5t-21.5 57.5zM303 1292q0 35 21.5 57.5t56.5 22.5t57.5 -22.5t22.5 -57.5t-22.5 -57.5t-57.5 -22.5t-56.5 22.5t-21.5 57.5zM840 1024h53q11 0 18 -7t7 -18v-976q0 -10 -7 -16.5 t-18 -6.5h-53q-23 0 -23 23v112q-35 -65 -106.5 -110t-184.5 -45q-173 0 -267.5 115t-94.5 329v575q0 25 22 25h54q10 0 17 -7t7 -18v-571q0 -352 262 -352q133 0 212 92t79 260v571q0 11 6.5 18t16.5 7z" />
<glyph unicode="&#xfd;" horiz-adv-x="997" d="M641 1434h78q14 0 14 -15q0 -6 -8 -18l-164 -246q-11 -16 -24 -16h-66q-14 0 -14 14q0 1 14 29l143 235q10 17 27 17zM172 -410h-82q-22 0 -22 23v53q0 25 22 25h82q98 0 147.5 45t81.5 133l54 149l-396 967q-8 19 -8 25q0 14 15 14h69q17 0 27 -23l350 -866l336 873 q7 16 22 16h72q14 0 14 -14q0 -8 -10 -31l-465 -1165q-48 -122 -113.5 -173t-195.5 -51z" />
<glyph unicode="&#xfe;" horiz-adv-x="1097" d="M274 612v-184q0 -166 83.5 -259t217.5 -93q135 0 217 92t82 260v168q0 167 -81.5 259.5t-217.5 92.5q-132 0 -216.5 -89t-84.5 -247zM274 143v-530q0 -23 -24 -23h-53q-23 0 -23 23v1796q0 11 6.5 18t16.5 7h53q10 0 17 -7t7 -18v-528q38 71 117 117t184 46 q176 0 288 -118.5t112 -327.5v-174q0 -209 -112 -326.5t-288 -117.5q-104 0 -182 45.5t-119 117.5z" />
<glyph unicode="&#xff;" horiz-adv-x="997" d="M584 1292q0 35 21.5 57.5t56.5 22.5t57 -22.5t22 -57.5t-22 -57.5t-57 -22.5t-56.5 22.5t-21.5 57.5zM256 1292q0 35 21.5 57.5t56.5 22.5t57.5 -22.5t22.5 -57.5t-22.5 -57.5t-57.5 -22.5t-56.5 22.5t-21.5 57.5zM172 -410h-82q-22 0 -22 23v53q0 25 22 25h82 q98 0 147.5 45t81.5 133l54 149l-396 967q-8 19 -8 25q0 14 15 14h69q17 0 27 -23l350 -866l336 873q7 16 22 16h72q14 0 14 -14q0 -8 -10 -31l-465 -1165q-48 -122 -113.5 -173t-195.5 -51z" />
<glyph unicode="&#x152;" horiz-adv-x="1732" d="M635 94h221v1245h-223q-165 0 -276 -117.5t-111 -314.5v-385q0 -196 111.5 -312t277.5 -116zM635 0q-102 0 -191.5 37t-156.5 104t-105.5 165.5t-38.5 215.5v387q0 118 38 217.5t104 166.5t156 104t192 37h973q10 0 17 -7t7 -18v-47q0 -23 -24 -23h-650v-567h506 q11 0 18 -7t7 -17v-48q0 -22 -25 -22h-506v-584h650q10 0 17 -7t7 -17v-47q0 -23 -24 -23h-971z" />
<glyph unicode="&#x153;" horiz-adv-x="1697" d="M1190 -20q-115 0 -203 52.5t-139 153.5q-49 -100 -136.5 -153t-201.5 -53q-172 0 -279.5 117t-107.5 327v174q0 210 107.5 328t279.5 118q112 0 200.5 -54t135.5 -154q49 101 138 154.5t202 53.5q172 0 280.5 -118t108.5 -328v-106q0 -10 -7 -16.5t-18 -6.5h-653v-55 q0 -158 82 -248t211 -90q205 0 276 215q6 18 21 18h63q15 0 15 -14q0 -6 -6 -27q-21 -80 -64 -139t-96.5 -90t-105.5 -45t-103 -14zM897 565h578v35q0 164 -80 256t-209 92t-209 -92t-80 -256v-35zM223 596v-168q0 -168 79 -260t208 -92t208 92t79 260v168q0 167 -79 259.5 t-208 92.5t-208 -92.5t-79 -259.5z" />
<glyph unicode="&#x178;" horiz-adv-x="1200" d="M686 1702q0 35 21.5 57.5t56.5 22.5t57.5 -22.5t22.5 -57.5t-22.5 -57.5t-57.5 -22.5t-56.5 22.5t-21.5 57.5zM358 1702q0 35 21.5 57.5t56.5 22.5t57.5 -22.5t22.5 -57.5t-22.5 -57.5t-57.5 -22.5t-56.5 22.5t-21.5 57.5zM629 0h-54q-22 0 -22 23v608l-500 764 q-12 18 -12 24q0 15 14 15h76q15 0 25 -17l450 -690l441 690q11 17 22 17h76q14 0 14 -15q0 -6 -8 -18l-498 -768v-610q0 -23 -24 -23z" />
<glyph unicode="&#x2c6;" horiz-adv-x="585" d="M145 1139h-69q-15 0 -15 14q0 4 3 10t7.5 12t4.5 7l147 235q10 17 27 17h86q16 0 26 -17l148 -235q14 -28 14 -29q0 -14 -14 -14h-70q-13 0 -24 16l-123 184l-123 -184q-11 -16 -25 -16z" />
<glyph unicode="&#x2dc;" horiz-adv-x="980" d="M293 1171h-45q-23 0 -23 23q0 83 43 129.5t107 46.5q38 0 74.5 -16t59.5 -36t50 -36t49 -16q60 0 60 84q0 24 22 24h43q11 0 18 -7t7 -17q0 -174 -150 -174q-39 0 -75.5 15.5t-58.5 34.5t-48.5 34.5t-50.5 15.5q-58 0 -58 -82q0 -23 -24 -23z" />
<glyph unicode="&#x2000;" horiz-adv-x="961" />
<glyph unicode="&#x2001;" horiz-adv-x="1923" />
<glyph unicode="&#x2002;" horiz-adv-x="961" />
<glyph unicode="&#x2003;" horiz-adv-x="1923" />
<glyph unicode="&#x2004;" horiz-adv-x="641" />
<glyph unicode="&#x2005;" horiz-adv-x="480" />
<glyph unicode="&#x2006;" horiz-adv-x="320" />
<glyph unicode="&#x2007;" horiz-adv-x="320" />
<glyph unicode="&#x2008;" horiz-adv-x="240" />
<glyph unicode="&#x2009;" horiz-adv-x="384" />
<glyph unicode="&#x200a;" horiz-adv-x="106" />
<glyph unicode="&#x2010;" horiz-adv-x="866" d="M723 637v-47q0 -10 -7 -16.5t-18 -6.5h-532q-23 0 -23 23v47q0 11 6.5 18t16.5 7h532q10 0 17.5 -7t7.5 -18z" />
<glyph unicode="&#x2011;" horiz-adv-x="866" d="M723 637v-47q0 -10 -7 -16.5t-18 -6.5h-532q-23 0 -23 23v47q0 11 6.5 18t16.5 7h532q10 0 17.5 -7t7.5 -18z" />
<glyph unicode="&#x2012;" horiz-adv-x="866" d="M723 637v-47q0 -10 -7 -16.5t-18 -6.5h-532q-23 0 -23 23v47q0 11 6.5 18t16.5 7h532q10 0 17.5 -7t7.5 -18z" />
<glyph unicode="&#x2013;" horiz-adv-x="1024" d="M881 637v-47q0 -10 -7 -16.5t-18 -6.5h-690q-23 0 -23 23v47q0 11 6.5 18t16.5 7h690q10 0 17.5 -7t7.5 -18z" />
<glyph unicode="&#x2014;" horiz-adv-x="2048" d="M1905 637v-47q0 -10 -7 -16.5t-18 -6.5h-1714q-23 0 -23 23v47q0 11 6.5 18t16.5 7h1714q10 0 17.5 -7t7.5 -18z" />
<glyph unicode="&#x2018;" horiz-adv-x="401" d="M289 1077q0 -41 -26.5 -67.5t-69.5 -26.5q-47 0 -74 33t-27 96q0 72 17.5 132.5t42 95.5t51.5 60t45.5 34.5t25.5 9.5q15 0 15 -19v-51q0 -5 -0.5 -8.5t-1 -6t-2.5 -5t-3 -3.5t-5 -4t-5 -4q-69 -59 -82 -169q42 0 70.5 -24t28.5 -73z" />
<glyph unicode="&#x2019;" horiz-adv-x="401" d="M113 1350q0 41 26.5 67.5t69.5 26.5q47 0 73.5 -33t26.5 -96q0 -72 -17.5 -132.5t-42 -95.5t-51.5 -60t-45.5 -34.5t-25.5 -9.5q-14 0 -14 18v52q0 5 0.5 8.5t1 5.5t2.5 4.5t2.5 3.5t4.5 4t5 4q69 59 82 170q-42 0 -70 24t-28 73z" />
<glyph unicode="&#x201a;" horiz-adv-x="391" d="M102 86q0 41 27 67.5t70 26.5q47 0 73.5 -33t26.5 -96q0 -72 -17.5 -132.5t-42 -95.5t-51.5 -60t-45.5 -34.5t-25.5 -9.5q-15 0 -15 19v51q0 5 0.5 8.5t1 6t2.5 5t3 3.5t5 4t5 4q69 59 82 170q-42 0 -70.5 23.5t-28.5 72.5z" />
<glyph unicode="&#x201c;" horiz-adv-x="749" d="M289 1077q0 -41 -26.5 -67.5t-69.5 -26.5q-47 0 -74 33t-27 96q0 72 17.5 132.5t42 95.5t51.5 60t45.5 34.5t25.5 9.5q15 0 15 -19v-51q0 -5 -0.5 -8.5t-1 -6t-2.5 -5t-3 -3.5t-5 -4t-5 -4q-69 -59 -82 -169q42 0 70.5 -24t28.5 -73zM637 1077q0 -41 -26.5 -67.5 t-69.5 -26.5q-47 0 -74 33t-27 96q0 72 17.5 132.5t42 95.5t52 60t46 34.5t25.5 9.5q14 0 14 -19v-51q0 -10 -2 -15.5t-3.5 -7t-10.5 -8.5q-69 -59 -82 -169q42 0 70 -24t28 -73z" />
<glyph unicode="&#x201d;" horiz-adv-x="749" d="M461 1350q0 41 26.5 67.5t69.5 26.5q47 0 73.5 -33t26.5 -96q0 -72 -17.5 -132.5t-42 -95.5t-51.5 -60t-45.5 -34.5t-25.5 -9.5q-14 0 -14 18v52q0 5 0.5 8.5t1 5.5t2.5 4.5t2.5 3.5t4.5 4t5 4q69 59 82 170q-42 0 -70 24t-28 73zM113 1350q0 41 26.5 67.5t69.5 26.5 q47 0 73.5 -33t26.5 -96q0 -72 -17.5 -132.5t-42 -95.5t-51.5 -60t-45.5 -34.5t-25.5 -9.5q-14 0 -14 18v52q0 5 0.5 8.5t1 5.5t2.5 4.5t2.5 3.5t4.5 4t5 4q69 59 82 170q-42 0 -70 24t-28 73z" />
<glyph unicode="&#x201e;" horiz-adv-x="739" d="M451 86q0 41 26.5 67.5t69.5 26.5q47 0 73.5 -33t26.5 -96q0 -72 -17.5 -132.5t-42 -95.5t-51.5 -60t-45.5 -34.5t-25.5 -9.5q-14 0 -14 19v51q0 10 2 15.5t3.5 7t10.5 8.5q69 59 82 170q-42 0 -70 23.5t-28 72.5zM102 86q0 41 27 67.5t70 26.5q47 0 73.5 -33t26.5 -96 q0 -72 -17.5 -132.5t-42 -95.5t-51.5 -60t-45.5 -34.5t-25.5 -9.5q-15 0 -15 19v51q0 5 0.5 8.5t1 6t2.5 5t3 3.5t5 4t5 4q69 59 82 170q-42 0 -70.5 23.5t-28.5 72.5z" />
<glyph unicode="&#x2022;" horiz-adv-x="458" d="M102 657q0 57 35 92t92 35t92 -35t35 -92t-35 -91t-92 -34t-92 34t-35 91z" />
<glyph unicode="&#x2026;" horiz-adv-x="1216" d="M922 84q0 43 26.5 69.5t69.5 26.5t69.5 -26.5t26.5 -69.5t-26.5 -68.5t-69.5 -25.5t-69.5 25.5t-26.5 68.5zM512 84q0 43 26.5 69.5t69.5 26.5t70 -26.5t27 -69.5q0 -42 -27 -68t-70 -26t-69.5 25.5t-26.5 68.5zM102 84q0 43 27 69.5t70 26.5t69.5 -26.5t26.5 -69.5 t-26.5 -68.5t-69.5 -25.5t-70 26t-27 68z" />
<glyph unicode="&#x202f;" horiz-adv-x="384" />
<glyph unicode="&#x2039;" horiz-adv-x="663" d="M506 219q-8 0 -29 14l-358 254q-17 14 -17 27v74q0 12 17 26l358 254q23 15 29 15q14 0 14 -15v-71q0 -14 -16 -25l-305 -217l305 -213q16 -11 16 -25v-84q0 -14 -14 -14z" />
<glyph unicode="&#x203a;" horiz-adv-x="663" d="M158 219q-15 0 -15 14v72q0 14 17 25l305 217l-305 213q-17 11 -17 24v84q0 6 4.5 10.5t10.5 4.5t28 -15l359 -254q16 -13 16 -26v-74q0 -14 -16 -27l-359 -254q-21 -14 -28 -14z" />
<glyph unicode="&#x205f;" horiz-adv-x="480" />
<glyph unicode="&#x20ac;" horiz-adv-x="1372" d="M1239 455q-4 -96 -43.5 -183t-104.5 -151.5t-157.5 -102.5t-196.5 -38q-140 0 -254 63t-183.5 183t-74.5 276h-202q-23 0 -23 22v47q0 11 6.5 18t16.5 7h202v221h-202q-23 0 -23 23v47q0 24 23 24h202q7 238 151 380.5t359 142.5q207 0 341 -126t163 -321q2 -24 -22 -24 h-64q-14 0 -16 22q-24 152 -132 253t-270 101q-169 0 -284.5 -115.5t-122.5 -312.5h424q10 0 17 -6.5t7 -17.5v-47q0 -23 -24 -23h-424v-221h424q10 0 17 -7t7 -18v-47q0 -22 -24 -22h-424q7 -196 123.5 -312t285.5 -116q164 0 273 105t131 280q2 12 14 12h70q14 0 14 -16z " />
<glyph unicode="&#x2122;" horiz-adv-x="1212" d="M31 1374v41q0 19 20 19h418q20 0 20 -19v-41q0 -16 -20 -16h-166v-502q0 -20 -18 -20h-52q-16 0 -16 20v502h-166q-20 0 -20 16zM635 836h-45q-17 0 -17 20v553q0 25 21 25h86q17 0 22 -19l148 -446l145 446q5 19 23 19h82q20 0 20 -25v-553q0 -20 -18 -20h-45 q-17 0 -17 20v469l-155 -475q-6 -14 -17 -14h-37q-12 0 -18 14l-160 475v-469q0 -20 -18 -20z" />
<glyph unicode="&#x25fc;" horiz-adv-x="1024" d="M0 1024h1024v-1024h-1024v1024z" />
</font>
</defs>
</svg>
